<svg xmlns="http://www.w3.org/2000/svg" width="108.234" height="114.297" viewBox="0 0 108.234 114.297"><g transform="translate(0.002 0.001)"><g transform="translate(-0.002 -0.001)"><path d="M29.826,10.876C8.486,28.219,4.8,60.155,21.6,82.18s47.723,25.847,69.064,8.5,25.021-49.278,8.2-71.313-47.7-25.838-69.037-8.5" transform="translate(-1.342 0.001)" fill="#39a935"/><path d="M28.8,13A85.01,85.01,0,0,0,7.028,42.59C-4.955,69.869,1.5,95.2,3.848,103.061c2.425,1.23.132.545,7.266,3.7A38.885,38.885,0,0,0,21.56,112.2c4.393,1.467,5.579.817,5.763.536a1.063,1.063,0,0,0,.132-.756h18.88q1.45-7.336,2.864-14.637" transform="translate(0.002 -1.578)" fill="#39a935"/><path d="M4.38,105.356s9.049,6.712,15.48,8.338C56.9,127.443,96.154,107.632,105.8,79.94A52.063,52.063,0,0,0,98.729,31.9l-1.6.817L100,80.028,78.135,99.971l-32.718.756a9.225,9.225,0,0,1-1.256,5C29.226,118.3,4.38,105.356,4.38,105.356" transform="translate(-0.53 -3.873)" fill="#008d36"/><path d="M39.334,15.424c-3.655,2.97-8.619,4.63-11.07,8.417-2.548,3.927-2.109,9.322-3.321,13.776s-4.331,8.856-4.164,13.53,3.567,8.733,5.148,13.178C27.456,68.6,27.4,73.989,30.32,77.793s7.977,4.99,11.65,7.529,6.87,7.028,11.184,8.258,9.19-.817,13.714-.993,9.453,1.546,13.749-.088c4.147-1.573,6.87-6.15,10.543-9.137s8.619-4.63,11.079-8.417c2.539-3.927,2.1-9.322,3.312-13.776s4.323-8.865,4.156-13.539-3.514-8.724-5.14-13.178c-1.529-4.279-1.476-9.664-4.393-13.468s-8.039-4.99-11.667-7.529c-3.8-2.636-6.87-7.028-11.184-8.25s-9.19.808-13.714.984-9.453-1.537-13.749.1c-4.147,1.573-6.87,6.15-10.543,9.137" transform="translate(-2.521 -0.584)" fill="#89c060"/><path d="M42.318,18.407c-3.3,2.688-7.96,4-10.174,7.415s-1.66,8.522-2.759,12.537-4.156,7.96-4.006,12.168,3.462,7.819,4.885,11.817,1.116,8.865,3.708,12.3,7.371,4.314,10.683,6.6,6.088,6.554,9.98,7.687,8.32-.993,12.4-1.151,8.575,1.652,12.449.176,6.071-5.79,9.374-8.469,7.951-4,10.174-7.415,1.66-8.513,2.759-12.537,4.156-7.96,4-12.168-3.462-7.819-4.885-11.825c-1.379-3.857-1.107-8.856-3.7-12.3s-7.38-4.3-10.657-6.6S80.395,10.1,76.529,8.954s-8.311.993-12.4,1.151-8.575-1.643-12.449-.167c-3.734,1.423-6.071,5.781-9.365,8.461" transform="translate(-3.08 -1.046)" fill="#fff"/><path d="M52.74,78.02,54.5,87.746,63.028,83.2" transform="translate(-6.403 -9.474)" fill="#d6d3d3"/><path d="M55.032,26.212l-9.313-2.355.492,9.884-9.365,2.065,4.595,8.68L33.85,50.539,41.643,56.3,37.355,65.15,46.8,66.863l-.149,9.893,9.225-2.706L59.9,83.037l7.178-6.554,7.406,6.3,3.708-9.137L87.5,76l-.492-9.884,9.365-2.065-4.595-8.689,7.591-6.044L91.58,43.555,95.868,34.7l-9.445-1.7.149-9.9L77.348,25.8,73.324,16.82l-7.178,6.554-7.406-6.29Z" transform="translate(-4.109 -2.042)" fill="#d6d3d3"/></g></g></svg>