<svg xmlns="http://www.w3.org/2000/svg" xmlns:xlink="http://www.w3.org/1999/xlink" width="959" height="334" viewBox="0 0 959 334"><defs><clipPath id="b"><rect width="959" height="334"/></clipPath></defs><g id="a" clip-path="url(#b)"><g transform="translate(25.722 -671.365)"><path d="M791.9,1015.037a25.993,25.993,0,0,0,1.426,7.546c1.643,4.743,3.338,12.852,1.521,16.587-2.312,4.75-3.914,7.237-8.8,12.329s-8.185,10.267-5.136,17.62,12.033,7.119,14.977,2.768,4.357-7.558,8.809-5.762,2.4,14.555,1.453,21.129,2.514,11.432,10.507,12.284,15.95-8.4,17.262-15.071,5.646-8.718,7.969-9.339c4.465-1.193,6.352.474,9.207,3.319,3.549,3.537-.067,9.886,4.891,14.786,2.8,2.769,9.379,5.949,17.147.351s7.267-14.9,5.1-18.519S868.1,1062.9,870.1,1058.709c2.668-5.573,13.591-5.733,15.988-11.913,1.484-3.827,4.142-10.846-3.957-15.781s-21.556,5.32-25.557.874c-3.44-3.822,6.007-19.47,8.724-23.784.438-.695.906-1.363,1.409-2.013h0c13.417-17.345-1.846-7.657-23.754-6.7l-33.231-1.78c-14.151.615-19.533-13.433-19.008.721Z" transform="translate(-415.018 -160.414)" fill="#045f29"/><g transform="translate(-21.562 843.715)"><path d="M235.874,1037.7c-.012-.014-.066-.062-.138-.126l-.113-.157Z" transform="translate(-121.227 -1026.857)" fill="#045f29"/><path d="M9.1,1101.471c-2.24-3.67-3.441-12.095-1.268-19.672s6.853-19.392,20.675-33.65,26.916-21.814,50.417-29.7c22.545-7.567,40.577,7.052,42.272,8.554.8,1.1,5.887,7.794,10.008,6.865,4.487-1.012,18.373,1.9,15.776,11.737s-17.135,7.1-20.479,1.04l-3.344-6.057a4.213,4.213,0,0,0-2.271-2.565c-1.873-.9-3.974-.384-3.727,1.416s-.946.557-.946.557-3.273-1.635-4.65-.654-1.253,4.263-.627,7.727,2.395,5.805.986,6.718-4.522-2.425-6.69-3.661-3.549-2.132-4.542-1.581-1.658,4.912-1.426,7.183-.7,4.378-2.466,4.791-3.181-1.26-4.111-3.328l-1.16-2.561c-1.384-3.189-2.906-5.019-4.817-8.689-2.135-4.1-3.605-5.287-4.618-5.063s1.98,6.188,3.611,11.07,2.447,6.716.445,7.95-3.122-3.83-4.68-7.565-5.085-10.3-6.91-9.628-1.393,1.771.912,8.479S78.247,1064.2,76,1064.7s-2.892-1.746-4.348-5.975-5.7-13.124-8.555-11.942-.369,4.9,1.413,9.651,4.226,12.678,1.472,13.367-3.365-1.6-3.365-1.6a63.51,63.51,0,0,0-2.538-9.327c-2-5.9-3.046-8.609-5.885-7.71s-2.464,3.259-2.464,3.259c-.158.847,2.548,6.526,3.474,11.561s.079,7.5-1.782,7.735a2.172,2.172,0,0,1-2.314-1.72s-3.5-17.158-5.4-16.791-1.389,2.592-1.389,2.592,1.226,11.987,1.627,15.518.872,6.343-1.9,6.63-2.762-3.006-2.762-3.006-1.048-10.075-1.5-13.261-.726-6.121-3.381-5.586-1.846,3.5-1.846,3.5l1.161,11.287c1.189,8.717,3.135,18.357-.215,18.966-2.947.536-3.069-3.693-3.069-3.693s-.364-5.028-1.068-9.3-1.258-6.608-3.657-5.9-1.5,3.549-1.5,3.549.222,2.075,1.212,10.888,2.3,13.962-.8,14.558-2.933-4.6-2.933-4.6-1.466-14.652-1.916-15.464-1.009-1.6-2.089-1.448-4.289.1-1.859,9.452-1.431,12.976-2.11,13.577A4.8,4.8,0,0,1,9.1,1101.471Z" transform="translate(-6.684 -1016.286)" fill="#045f29"/></g><g transform="translate(772.961 682.965)"><line x1="18.035" y2="68.583" transform="translate(0 17.923)" fill="#0f888e"/><line x1="43.31" y2="55.052" transform="translate(5.704 30.834)" fill="#0f888e"/><path d="M1694.775,725.018a18.58,18.58,0,0,0-2.279-5.993l-2.715,5.528,4.854.752Z" transform="translate(-1643.295 -706.81)" fill="#39a935"/><path d="M1692.019,736.1l2.585-5.258-4.854-.752-.03.064a18.655,18.655,0,0,1,2.3,5.946" transform="translate(-1643.265 -712.346)" fill="#39a935"/><path d="M1679.3,717.273l2.431-4.947-6.222,2.041-.1.194a17.626,17.626,0,0,1,3.89,2.711" transform="translate(-1636.104 -703.459)" fill="#39a935"/><path d="M1682.162,708.234a17.872,17.872,0,0,0-3.879-2.737l-2.678,5.454,6.222-2.042Z" transform="translate(-1636.202 -700.042)" fill="#39a935"/><path d="M1664.189,701.917a16.912,16.912,0,0,0-5.071-.306l-2.815,5.729c.027,0,.057,0,.083-.006l7.43-4.659Z" transform="translate(-1626.545 -698.063)" fill="#39a935"/><path d="M1673.451,703.754a17.237,17.237,0,0,0-4.157-1.461l-2.788,5.676a17.406,17.406,0,0,1,4.285,1.485c.054.026.109.059.164.087l2.776-5.647c-.092-.047-.185-.1-.28-.14" transform="translate(-1631.649 -698.439)" fill="#fff"/><path d="M1646.906,703.424l-2.867,5.833a16.916,16.916,0,0,1,6.128-1.848l2.815-5.73a16.887,16.887,0,0,0-6.077,1.744" transform="translate(-1620.409 -698.132)" fill="#fff"/><path d="M1635,710.907l-.92,1.909v0l-.877,1.82.493.261a17.087,17.087,0,0,1,4.921-3.895l2.867-5.833a17.036,17.036,0,0,0-6.485,5.736" transform="translate(-1614.987 -699.879)" fill="#39a935"/><path d="M1685.958,710.975l-2.766,5.622a17.909,17.909,0,0,1,3.262,3.992L1689.2,715a18.226,18.226,0,0,0-3.241-4.022" transform="translate(-1639.998 -702.783)" fill="#fff"/><path d="M1695.722,742.06a18.109,18.109,0,0,0,1.325-11.041l-2.726,5.545a18.183,18.183,0,0,1,0,7.168l.446.221c.035-.081.083-.161.12-.242.224-.484.424-.976.6-1.469l.114.057c.038-.081.08-.158.12-.239" transform="translate(-1645.566 -712.811)" fill="#fff"/><path d="M1696.711,747.963l-.515-.174,2.021-6.2.5.207Z" transform="translate(-1646.504 -718.102)" fill="#297977"/><path d="M1667.124,706.538l.362-.818a18.3,18.3,0,0,0-1.825-3.372l-.873-.147.13-.88a17.92,17.92,0,0,0-2.819-2.844l-.818.162-.177-.9.017,0a17.527,17.527,0,0,0-3.32-1.816l-.787.37-.376-.822a17.162,17.162,0,0,0-4.031-.815l-.621.594-.6-.664a16.67,16.67,0,0,0-3.722.393l-.459.724-.666-.454a16.773,16.773,0,0,0-3.676,1.582l-.169.752-.763-.193a17.042,17.042,0,0,0-2.97,2.51l.039.756-.76.028a17.563,17.563,0,0,0-3.317,6.14c-.032.088-.047.174-.075.263l.466.158a16.931,16.931,0,0,1,20.095-7.49,18.216,18.216,0,0,1,12.124,18.434l.464.154c.028-.083.062-.168.09-.256a18.248,18.248,0,0,0-.16-11.157Z" transform="translate(-1615.81 -694.58)" fill="#297977"/><line x1="1.761" y2="5.772" transform="translate(17.867 12.502)" fill="#297977"/><path d="M1661.483,708.728l2.416-4.918-7.43,4.659a16.853,16.853,0,0,1,5.014.259" transform="translate(-1626.628 -699.198)" fill="#39a935"/><path d="M1680.33,705.1a18.967,18.967,0,0,1,10.467,15.4" transform="translate(-1638.566 -699.845)" fill="none" stroke="#fff" stroke-width="0.166" stroke-dasharray="1.003 0.836"/></g><g transform="translate(374.729 703.417)"><line x2="5.396" y2="14.893" fill="none" stroke="#3aaa35" stroke-miterlimit="10" stroke-width="3"/><line x1="5.471" y2="14.878" transform="translate(5.396 0.015)" fill="none" stroke="#3aaa35" stroke-miterlimit="10" stroke-width="3"/></g><g transform="translate(388.026 703.636)"><line x2="2.728" y2="15.603" fill="none" stroke="#3aaa35" stroke-miterlimit="10" stroke-width="3"/><line x1="7.971" y2="13.702" transform="translate(2.728 1.902)" fill="none" stroke="#3aaa35" stroke-miterlimit="10" stroke-width="3"/></g><g transform="translate(401.06 706.161)"><line x1="0.023" y2="15.84" fill="none" stroke="#3aaa35" stroke-miterlimit="10" stroke-width="3"/><line x1="10.23" y2="12.109" transform="translate(0 3.731)" fill="none" stroke="#3aaa35" stroke-miterlimit="10" stroke-width="3"/></g><g transform="translate(410.73 710.915)"><line x1="2.773" y2="15.596" fill="none" stroke="#3aaa35" stroke-miterlimit="10" stroke-width="3"/><line x1="12.177" y2="10.149" transform="translate(0 5.447)" fill="none" stroke="#3aaa35" stroke-miterlimit="10" stroke-width="3"/></g><g transform="translate(337.4 710.89)"><line x2="12.12" y2="10.199" transform="translate(0 5.421)" fill="none" stroke="#3aaa35" stroke-miterlimit="10" stroke-width="3"/><line x2="2.701" y2="15.62" transform="translate(9.419)" fill="none" stroke="#3aaa35" stroke-miterlimit="10" stroke-width="3"/></g><g transform="translate(349.025 706.149)"><line x2="10.165" y2="12.149" transform="translate(0 3.703)" fill="none" stroke="#3aaa35" stroke-miterlimit="10" stroke-width="3"/><line x1="0.053" y2="15.852" transform="translate(10.165)" fill="none" stroke="#3aaa35" stroke-miterlimit="10" stroke-width="3"/></g><g transform="translate(361.595 703.638)"><line x2="7.901" y2="13.729" transform="translate(0 1.872)" fill="none" stroke="#3aaa35" stroke-miterlimit="10" stroke-width="3"/><line x1="2.805" y2="15.602" transform="translate(7.901)" fill="none" stroke="#3aaa35" stroke-miterlimit="10" stroke-width="3"/></g><circle cx="6.261" cy="6.261" r="6.261" transform="translate(373.864 690.746)" fill="#3aaa35" stroke="#3aaa35" stroke-miterlimit="10" stroke-width="1"/><circle cx="6.261" cy="6.261" r="6.261" transform="translate(352.508 693.557)" fill="#3aaa35" stroke="#3aaa35" stroke-miterlimit="10" stroke-width="1"/><circle cx="6.261" cy="6.261" r="6.261" transform="translate(332.607 701.8)" fill="#3aaa35" stroke="#3aaa35" stroke-miterlimit="10" stroke-width="1"/><circle cx="6.261" cy="6.261" r="6.261" transform="translate(415.12 701.8)" fill="#3aaa35" stroke="#3aaa35" stroke-miterlimit="10" stroke-width="1"/><circle cx="6.261" cy="6.261" r="6.261" transform="translate(395.22 693.557)" fill="#3aaa35" stroke="#3aaa35" stroke-miterlimit="10" stroke-width="1"/><path d="M1765.558,931.533a26.5,26.5,0,0,0,5.3-5.769c2.874-4.236,8.47-10.569,12.632-11.361,5.292-1.007,8.3-1.214,15.447-.327s13.387.428,17.537-6.55-1.52-14.181-6.873-13.933-8.837,1.048-10.084-3.687,10.436-10.838,16.387-14.077,7.813-9.029,3.633-16.083-16.6-7.917-22.851-4.918-10.571.7-12.5-.818c-3.7-2.923-3.488-5.481-2.9-9.551.726-5.059,8.123-5.976,9.1-13.018.554-3.98-.857-11.3-10.173-14.232s-16.61,3.146-18.253,7.125-3.763,15.71-8.409,16.625c-6.183,1.219-12.978-7.614-19.492-5.8-4.035,1.122-11.394,3.23-10.487,12.862s17.5,14.378,16.3,20.36c-1.026,5.144-19.581,6.966-24.766,7.377-.835.066-1.668.09-2.505.076h0c-22.364-.388-34.958,25.561-20.815,42.89l19.059,23.353a26.279,26.279,0,0,0,36.845,3.849Z" transform="translate(-868.353 -72.581)" fill="#045f29"/><g transform="translate(818.338 731.622)"><path d="M1733.209,822.614a26.769,26.769,0,0,0-10.066,15.062,18.594,18.594,0,0,0-.747,4.459,27.557,27.557,0,0,0,1.914,12.7c1.895,6.517,4.792,13.249,6.953,19.3.027.085.048.174.079.259a5.62,5.62,0,0,0-1.753.8,6.007,6.007,0,0,0-2.049,2.542,8.026,8.026,0,0,1-1.47,2.645c-2.4,1.655-3.511,0-5.924,1.689-.106.073-.2.147-.29.22l.1.148c-.124.075-.238.12-.372.213-2.36,1.654-1.28,3.3-3.636,4.951s-3.445.008-5.805,1.662-1.275,3.3-3.643,4.955-3.441.008-5.8,1.661-1.276,3.3-3.636,4.952-3.445.008-5.809,1.665c-1.808,1.267-1.617,2.526-2.48,3.792a2.853,2.853,0,0,1-.277-.213,3.068,3.068,0,0,1-.2-4.2l-.018-.019c1.422-1.681.357-2.751,1.872-4.455,1.539-1.735,2.675-.662,4.214-2.4s.406-2.808,1.939-4.54,2.676-.655,4.213-2.393a3.9,3.9,0,0,0,.444-.593c.2-.728.424-1.452.569-2.2a23.212,23.212,0,0,0,.549-6.044c-.073-5.567-31.143-57.842,18.242-82.342,32.233-15.992,63.4,8.267,66.853,53.322,2.27,29.688,14.5,33.3,17.353,34-4.844-.744-22.483-7.109-26.411-23.763-1.042-4.417-5.027-26.246-8.671-31.531a25.46,25.46,0,0,0-36.237-6.3" transform="translate(-1687.562 -791.957)" fill="#0f888e"/><path d="M1711.612,849.194s-2.217-18.959,17.05-28.315c-.117-.093-23.984,5.737-17.05,28.315" transform="translate(-1698.963 -806.426)" fill="#fff"/><path d="M1782.582,837.126a2.739,2.739,0,0,1-1.251,3.587,2.578,2.578,0,0,1-3.433-1.4,2.733,2.733,0,0,1,1.246-3.587,2.585,2.585,0,0,1,3.438,1.4" transform="translate(-1732.637 -813.74)" fill="#43afc0"/><path d="M1801.685,830.642a2.73,2.73,0,0,1-1.247,3.584,2.584,2.584,0,0,1-3.437-1.4,2.737,2.737,0,0,1,1.251-3.591,2.581,2.581,0,0,1,3.433,1.4" transform="translate(-1742.195 -810.495)" fill="#43afc0"/><path d="M1822.46,831.34a2.732,2.732,0,0,1-1.246,3.587,2.579,2.579,0,0,1-3.433-1.4,2.738,2.738,0,0,1,1.245-3.587,2.578,2.578,0,0,1,3.433,1.4" transform="translate(-1752.592 -810.844)" fill="#43afc0"/><path d="M1838.138,840.819a1.884,1.884,0,0,1-.855,2.475,1.784,1.784,0,0,1-2.375-.965,1.887,1.887,0,0,1,.86-2.474,1.779,1.779,0,0,1,2.37.964" transform="translate(-1761.199 -815.841)" fill="#43afc0"/><path d="M1850,850.281a1.886,1.886,0,0,1-.859,2.475,1.787,1.787,0,0,1-2.372-.965,1.89,1.89,0,0,1,.862-2.479,1.776,1.776,0,0,1,2.369.969" transform="translate(-1767.133 -820.573)" fill="#43afc0"/><path d="M1858.957,863.247a1.89,1.89,0,0,1-.859,2.475,1.786,1.786,0,0,1-2.376-.965,1.892,1.892,0,0,1,.859-2.479,1.789,1.789,0,0,1,2.376.968" transform="translate(-1771.612 -827.061)" fill="#43afc0"/><path d="M1865.86,887.861a1.177,1.177,0,0,1-.537,1.555,1.113,1.113,0,0,1-1.486-.605,1.179,1.179,0,0,1,.541-1.553,1.119,1.119,0,0,1,1.483.6" transform="translate(-1775.702 -839.589)" fill="#43afc0"/><path d="M1867.866,898.846a1.186,1.186,0,0,1-.54,1.558,1.121,1.121,0,0,1-1.486-.609,1.19,1.19,0,0,1,.541-1.554,1.12,1.12,0,0,1,1.485.605" transform="translate(-1776.706 -845.084)" fill="#43afc0"/><path d="M1869.4,909.066a.765.765,0,0,1-.345,1,.715.715,0,0,1-.96-.391.753.753,0,0,1,.349-1,.721.721,0,0,1,.956.391" transform="translate(-1777.851 -850.321)" fill="#43afc0"/><path d="M1870.478,916.768a.759.759,0,0,1-.349,1,.716.716,0,0,1-.958-.391.766.766,0,0,1,.345-1,.728.728,0,0,1,.961.395" transform="translate(-1778.391 -854.174)" fill="#43afc0"/><path d="M1872.251,927.122a.759.759,0,0,1-.34,1,.721.721,0,0,1-.965-.393.762.762,0,0,1,.349-1,.719.719,0,0,1,.957.391" transform="translate(-1779.279 -859.355)" fill="#43afc0"/><path d="M1876.24,938.57a.761.761,0,0,1-.345,1,.712.712,0,0,1-.956-.388.765.765,0,0,1,.345-1.007.721.721,0,0,1,.956.395" transform="translate(-1781.275 -865.081)" fill="#43afc0"/><path d="M1882.093,948a.757.757,0,0,1-.349,1,.715.715,0,0,1-.956-.392.759.759,0,0,1,.349-1,.72.72,0,0,1,.957.395" transform="translate(-1784.202 -869.798)" fill="#43afc0"/><path d="M1889.933,955.627a.769.769,0,0,1-.349,1,.722.722,0,0,1-.957-.395.769.769,0,0,1,.346-1,.723.723,0,0,1,.96.395" transform="translate(-1788.125 -873.615)" fill="#43afc0"/><path d="M1755.258,862.767a2.735,2.735,0,0,1-1.245,3.591,2.581,2.581,0,0,1-3.433-1.4,2.727,2.727,0,0,1,1.246-3.587,2.582,2.582,0,0,1,3.433,1.4" transform="translate(-1718.968 -826.57)" fill="#43afc0"/><path d="M1747.432,880.134a3.42,3.42,0,0,1-1.564,4.5,3.231,3.231,0,0,1-4.308-1.758,3.429,3.429,0,0,1,1.565-4.506,3.225,3.225,0,0,1,4.307,1.763" transform="translate(-1714.424 -835.045)" fill="#43afc0"/><path d="M1746.279,900.692a4.137,4.137,0,0,1-1.876,5.425,3.9,3.9,0,0,1-5.194-2.12,4.135,4.135,0,0,1,1.889-5.424,3.892,3.892,0,0,1,5.182,2.119" transform="translate(-1713.218 -845.125)" fill="#43afc0"/><path d="M1767.624,849.02a2.743,2.743,0,0,1-1.249,3.591,2.578,2.578,0,0,1-3.429-1.4,2.726,2.726,0,0,1,1.242-3.587,2.583,2.583,0,0,1,3.437,1.4" transform="translate(-1725.154 -819.691)" fill="#43afc0"/><path d="M1863.481,875.98a1.371,1.371,0,0,1-.62,1.79,1.291,1.291,0,0,1-1.718-.7,1.359,1.359,0,0,1,.623-1.79,1.3,1.3,0,0,1,1.715.7" transform="translate(-1774.346 -833.588)" fill="#43afc0"/></g><path d="M1323.212,1052.411c-30.22,8.7-40.783,22.279-40.783,22.279s20.22,39.249,39.984,20.319c1.563-1.5,3.013-2.808,4.373-3.975l-10.945-15.457a2.964,2.964,0,0,1,.608-4.063,2.763,2.763,0,0,1,3.938.629l10.883,15.369c.005,0,.007-.005.01-.005l2.384,3.37a2.764,2.764,0,0,0,3.938.629,2.962,2.962,0,0,0,.816-3.691l-8.548-12.072a2.978,2.978,0,0,1,.609-4.068,2.764,2.764,0,0,1,3.938.631l7.7,10.872c.005,0,.012-.005.012,0l7.54,10.653a2.764,2.764,0,0,0,3.936.628,2.954,2.954,0,0,0,.814-3.7l-8.6-12.152a2.957,2.957,0,0,1,.614-4.06,2.742,2.742,0,0,1,3.924.629l10.267,14.492a.4.4,0,0,1,.057,0l3.376,4.761a3.8,3.8,0,0,0,5.425.869,4.092,4.092,0,0,0,.844-5.6l-1.051-1.485a2.472,2.472,0,0,1-.261-.3l-11.637-16.432a2.967,2.967,0,0,1,.612-4.062,2.762,2.762,0,0,1,3.934.631l11.24,15.872c.026-.033.061-.069.09-.1l1.981,2.8a2.756,2.756,0,0,0,3.937.626,2.967,2.967,0,0,0,.614-4.06l-3.089-4.353c.008-.007.013-.016.018-.016l-8.571-12.108a2.972,2.972,0,0,1,.614-4.063,2.757,2.757,0,0,1,3.935.635l19.381,27.1a2.769,2.769,0,0,0,3.936.63,2.971,2.971,0,0,0,.611-4.062l-9.763-13.9a2.966,2.966,0,0,1,.612-4.063,2.754,2.754,0,0,1,3.932.637l16.067,22.755a2.748,2.748,0,0,0,3.932.631,2.969,2.969,0,0,0,.614-4.061l-11.469-16.238a2.973,2.973,0,0,1,.614-4.062,2.761,2.761,0,0,1,3.935.63l7.082,10c3.927,5.55,7.457,6.98,10.166,6.271,4.073-1.283,5.288-5.111,2.5-11.051-9.4-17.681-50.242-36.891-101.632-22.087" transform="translate(-666.527 -188.003)" fill="#39a935"/><path d="M459.168,910.467c0,19.7-15.467,35.67-34.547,35.67s-34.547-15.969-34.547-35.67,15.466-35.672,34.547-35.672,34.547,15.971,34.547,35.672" transform="translate(-220.064 -101.78)" fill="#007f83"/><path d="M492.083,984.585c0,19.7-15.468,35.67-34.548,35.67s-34.546-15.969-34.546-35.67,15.466-35.672,34.546-35.672,34.548,15.971,34.548,35.672" transform="translate(-236.532 -138.863)" fill="#007f83"/><path d="M499.649,1100.794c0,12.843-10.085,23.255-22.525,23.255s-22.522-10.412-22.522-23.255,10.082-23.256,22.522-23.256,22.525,10.411,22.525,23.256" transform="translate(-252.348 -203.217)" fill="#007f83"/><path d="M443.023,1078.869c0,12.843-10.085,23.254-22.523,23.254s-22.524-10.411-22.524-23.254,10.084-23.257,22.524-23.257,22.523,10.411,22.523,23.257" transform="translate(-224.017 -192.247)" fill="#007f83"/><path d="M404.78,853.149l-.706,11.928-68.181,43.9-38.142-10.554a27.623,27.623,0,0,1-6.537-31.768c3.318-7.219.6-11.563-7.408-11.039-6.174.4-12.309,1.273-18.47,1.8a8.876,8.876,0,0,1-9.873-7.856c-.2-1.28-.368-2.572-.547-3.854,2.3-6.692,8.316-9.6,13.555-13.3,4.159-2.793,9.185-4.414,12.067-8.93,2.694-2.478,1.941-4.765-.431-6.9-3.976-3.586-9.044-5.4-13.569-8.083-9.478-5.6-10.615-14.034-6.076-22.321,2.686-4.9,7.5-5.17,12.286-4.816,2.659.194,5.252,1.1,7.9,1.566,4.371.77,6.93-1.005,7.92-5.527,1.138-5.216.874-10.458.389-15.746-.582-6.44,4.261-13.281,9.989-14.687,8.024-1.963,15.1.572,18.084,6.957,3.053,6.535,1.209,12.945-1.99,18.8-2.61,4.774.5,11.9,4.783,14.6,4.143,2.6,8.987,1.515,12.7-2.977,5.836-7.059,13.1-7.35,21.052-4.608a6.541,6.541,0,0,0,.985,1.072c9.795,6.692,7.6,21.006-2.738,25.732-2.646,1.2-4.636,3.433-6.429,5.761-3.011,3.928-3.5,9.167-.668,12.012,3.364,3.373,6.969,2.8,10.856.43,4.619-2.83,8.434-1.423,10.724,3.407.535,1.108-.021,2.72,1.532,3.371,2.25,3.259,5.924,2.1,8.976,2.875C387.839,838.109,398.006,843.119,404.78,853.149Z" transform="translate(-152.441 -37.496)" fill="#93d1d9"/><path d="M1465.278,941.826l10.45,5.793,73.594-34.062,11.516-37.863a27.623,27.623,0,0,0-23.325-22.536c-7.873-1.064-10.089-5.683-5.355-12.168,3.642-5,7.668-9.713,11.41-14.635a8.876,8.876,0,0,0-1.346-12.545c-.974-.853-1.975-1.689-2.962-2.526-6.882-1.643-12.565,1.879-18.5,4.321-4.586,2.016-8.647,5.393-14,5.408-3.536.948-5.064-.913-5.6-4.059-.9-5.279.285-10.529.442-15.788.346-11-6.166-16.481-15.6-17.086-5.576-.356-8.385,3.568-10.647,7.8-1.26,2.349-1.881,5.026-2.909,7.508-1.691,4.1-4.56,5.314-8.909,3.729-5.014-1.833-9.3-4.863-13.505-8.105-5.127-3.941-13.5-3.515-17.753.569-5.955,5.725-7.607,13.062-3.81,19,3.883,6.079,10.284,7.954,16.945,8.39,5.429.353,9.783,6.8,9.77,11.861-.02,4.894-3.534,8.4-9.315,9.129-9.087,1.147-13.225,7.128-15.166,15.309a6.565,6.565,0,0,1,.378,1.406c.4,11.856,13.67,17.666,23.2,11.47,2.432-1.59,5.381-2.077,8.308-2.344,4.929-.439,9.613,1.958,10.5,5.87,1.046,4.647-1.367,7.386-5.452,9.4-4.863,2.385-5.719,6.36-2.867,10.881.649,1.045,2.308,1.439,2.026,3.1,1.547,3.645-1.4,6.127-2.38,9.12C1461.651,919.466,1460.436,930.734,1465.278,941.826Z" transform="translate(-738.58 -56.383)" fill="#93d1d9"/><path d="M1661.419,869.667l-13.94-3.161-73.147,63.725-.572,47.34a33.046,33.046,0,0,0,34.325,18.089c9.4-1.41,13.487,3.155,10.218,12.187-2.512,6.962-5.561,13.72-8.214,20.624-2.209,5.769.181,11.381,5.739,13.96,1.4.654,2.833,1.28,4.246,1.912,8.455-.412,13.8-6.358,19.8-11.146,4.594-3.849,8.13-9.085,14.278-10.893,3.745-2.271,6.122-.644,7.784,2.792,2.8,5.763,3.192,12.189,4.769,18.283,3.28,12.755,12.591,16.87,23.625,14.413,6.524-1.455,8.438-6.9,9.624-12.514.662-3.12.48-6.4.83-9.6.571-5.279,3.462-7.628,8.988-7.26,6.372.429,12.307,2.477,18.222,4.8,7.207,2.813,16.68-.475,20.2-6.587,4.927-8.567,4.372-17.546-1.974-23.1-6.493-5.684-14.472-5.7-22.268-3.974-6.354,1.41-13.51-4.542-15.187-10.359-1.613-5.627,1.251-10.83,7.648-13.6,10.055-4.355,12.808-12.609,12.3-22.654a7.868,7.868,0,0,1-.9-1.489c-4.428-13.483-21.607-15.723-30.479-5.421-2.263,2.639-5.487,4.184-8.759,5.469-5.516,2.151-11.7.965-14.025-3.232-2.756-4.988-.9-8.941,3.121-12.617,4.789-4.364,4.443-9.217-.345-13.456-1.095-.984-3.133-.882-3.363-2.883-3-3.67-.441-7.506-.315-11.271C1673.06,894.139,1670.689,880.789,1661.419,869.667Z" transform="translate(-812.286 -97.633)" fill="#93d1d9"/><path d="M500.193,909.306l-11.943.352-45.906,66.85,9.419,38.438a27.624,27.624,0,0,0,31.56,7.476c7.314-3.1,11.576-.261,10.815,7.732-.58,6.159-1.637,12.266-2.343,18.408a8.877,8.877,0,0,0,7.56,10.1c1.274.236,2.56.444,3.837.661,6.757-2.1,9.847-8.028,13.7-13.155,2.916-4.075,4.684-9.051,9.284-11.8,2.557-2.62,4.821-1.8,6.883.635,3.467,4.081,5.128,9.2,7.677,13.8,5.318,9.64,13.713,11.027,22.132,6.735,4.977-2.539,5.39-7.347,5.178-12.138-.115-2.663-.948-5.282-1.331-7.942-.64-4.392,1.21-6.9,5.759-7.753,5.248-.982,10.479-.564,15.751.078,6.42.772,13.4-3.866,14.977-9.549,2.2-7.963-.124-15.115-6.418-18.282-6.442-3.245-12.9-1.592-18.854,1.432-4.849,2.467-11.884-.855-14.455-5.214-2.481-4.219-1.248-9.027,3.351-12.6,7.229-5.624,7.736-12.88,5.23-20.906a6.594,6.594,0,0,1-1.042-1.016c-6.4-9.989-20.771-8.216-25.8,1.974-1.281,2.609-3.568,4.533-5.949,6.256-4.015,2.893-9.266,3.222-12.027.311-3.271-3.462-2.594-7.049-.108-10.864,2.966-4.533,1.672-8.388-3.088-10.82-1.091-.568-2.719-.06-3.324-1.631-3.19-2.346-1.923-5.984-2.607-9.057C514.724,926.685,510.018,916.375,500.193,909.306Z" transform="translate(-246.215 -119.047)" fill="#93d1d9"/><path d="M968.915,945.429l9.964-3.361L1037.2,983.2l3.98,34.6a24.312,24.312,0,0,1-23.759,15.82c-6.985-.324-9.633,3.323-6.561,9.687,2.362,4.906,5.1,9.622,7.563,14.475a7.812,7.812,0,0,1-3.15,10.648c-.979.584-1.977,1.149-2.964,1.718-6.218.334-10.581-3.614-15.329-6.667-3.652-2.471-6.633-6.037-11.269-6.9-2.911-1.38-4.528-.01-5.486,2.629-1.614,4.428-1.419,9.161-2.115,13.738-1.441,9.581-7.945,13.293-16.205,12.325-4.884-.574-6.694-4.415-7.984-8.433-.719-2.233-.833-4.649-1.33-6.961-.815-3.82-3.107-5.322-7.123-4.637-4.63.794-8.82,2.739-12.975,4.88-5.062,2.6-12.242.907-15.28-3.3-4.25-5.9-4.52-12.512-.293-17.05,4.324-4.648,10.163-5.26,16-4.583,4.756.553,9.546-4.34,10.335-8.724.757-4.24-1.731-7.831-6.62-9.377-7.686-2.43-10.322-8.264-10.709-15.653a5.783,5.783,0,0,0,.55-1.158c2.226-10.2,14.629-13.132,21.9-6.26a15.77,15.77,0,0,0,6.822,3.344c4.2,1.16,8.632-.174,10.021-3.421,1.641-3.858-.015-6.611-3.233-9-3.834-2.834-3.945-6.411-.76-9.874.727-.8,2.226-.881,2.244-2.362,1.916-2.911-.242-5.526-.618-8.272C962.238,964.215,962.969,954.267,968.915,945.429Z" transform="translate(-482.139 -135.438)" fill="#93d1d9"/><path d="M1191.15,890.263l-4.668,9.422-70.327,12.158-27.281-21.653a24.311,24.311,0,0,1,5.613-27.987c5.168-4.709,4.462-9.162-2.211-11.49-5.139-1.8-10.411-3.2-15.583-4.888a7.812,7.812,0,0,1-5.3-9.756c.279-1.105.585-2.211.88-3.311,4.161-4.633,10.037-4.926,15.553-6.125,4.33-.835,8.959-.422,12.845-3.091,3.034-1.082,3.209-3.194,2.02-5.738-1.99-4.272-5.474-7.481-8.219-11.21-5.756-7.794-3.781-15.017,2.744-20.174,3.859-3.048,7.855-1.612,11.609.318,2.088,1.07,3.877,2.7,5.862,3.981,3.278,2.125,5.96,1.565,8.316-1.758,2.713-3.836,4.3-8.174,5.723-12.625,1.741-5.419,8.015-9.3,13.139-8.47,7.176,1.165,12.043,5.651,12.264,11.848.229,6.344-3.466,10.9-8.071,14.553-3.755,2.972-3.681,9.819-1.139,13.476,2.462,3.534,6.761,4.314,11.312,1.95,7.153-3.716,13.142-1.456,18.641,3.5a5.768,5.768,0,0,0,.43,1.207c5.638,8.786-1.059,19.63-11.057,19.91a15.774,15.774,0,0,0-7.188,2.459c-3.789,2.149-5.981,6.227-4.667,9.5,1.567,3.888,4.685,4.664,8.649,4.077,4.714-.707,7.322,1.744,7.519,6.444.053,1.082-.951,2.2.084,3.257.7,3.413,4.078,3.736,6.286,5.413C1182.588,872.258,1189.105,879.809,1191.15,890.263Z" transform="translate(-560.794 -48.226)" fill="#93d1d9"/><line y1="0.525" transform="translate(263.882 747.503)" fill="none" stroke="#93d1d9" stroke-miterlimit="10" stroke-width="1"/><line y1="0.724" transform="translate(249.396 748.079)" fill="none" stroke="#93d1d9" stroke-miterlimit="10" stroke-width="1"/><path d="M642.689,929.991v6.175a6.245,6.245,0,0,1-3.936-4.273,6.106,6.106,0,0,1-.209-1.9Z" transform="translate(-344.375 -129.396)" fill="none" stroke="#3aaa35" stroke-miterlimit="10" stroke-width="1"/><line x1="4.232" transform="translate(294.083 828.166)" fill="none" stroke="#3aaa35" stroke-miterlimit="10" stroke-width="1"/><path d="M692.939,985.168H810.493" transform="translate(-371.593 -157.002)" fill="none" stroke="#3aaa35" stroke-miterlimit="10" stroke-width="1"/><line y1="12.502" transform="translate(452.004 814.522)" fill="none" stroke="#3aaa35" stroke-miterlimit="10" stroke-width="1"/><line x1="3.635" transform="translate(534.62 815.781)" fill="none" stroke="#93d1d9" stroke-miterlimit="10" stroke-width="1"/><path d="M1457.831,815.728l-.045.045c-.536.51-5.7,5.472-13.145,12.3-5.027,4.6-11.095,10.065-17.489,15.577-4.869,4.2-9.927,8.434-14.853,12.344-4.6,3.656-9.076,7.032-13.185,9.841-.229.158-.464.316-.693.469a238.851,238.851,0,0,1-20.655,12.37" transform="translate(-714.225 -72.228)" fill="none" stroke="#3aaa35" stroke-miterlimit="10" stroke-width="1"/><path d="M1457.969,832.116s-.061.107-.183.316c-.872,1.443-4.844,7.74-13.145,16.729a195.694,195.694,0,0,1-17.489,16.632q-5.522,4.666-12.212,9.632-1.308.964-2.641,1.912c-4.487,3.176-9.173,6.174-13.879,8.974-4.61,2.743-9.244,5.293-13.741,7.628q-3.526,1.827-6.914,3.482" transform="translate(-714.225 -80.427)" fill="none" stroke="#3aaa35" stroke-miterlimit="10" stroke-width="1"/><line y2="75.651" transform="translate(730.417 755.574)" fill="none" stroke="#3aaa35" stroke-miterlimit="10" stroke-width="1"/><line y2="59.804" transform="translate(712.927 771.421)" fill="none" stroke="#3aaa35" stroke-miterlimit="10" stroke-width="1"/><line y2="47.46" transform="translate(698.075 783.766)" fill="none" stroke="#3aaa35" stroke-miterlimit="10" stroke-width="1"/><line y2="37.229" transform="translate(684.194 793.997)" fill="none" stroke="#3aaa35" stroke-miterlimit="10" stroke-width="1"/><line y2="28.714" transform="translate(670.451 802.511)" fill="none" stroke="#3aaa35" stroke-miterlimit="10" stroke-width="1"/><line y1="0.087" transform="translate(657.68 809.433)" fill="none" stroke="#93d1d9" stroke-miterlimit="10" stroke-width="1"/><line y1="0.184" transform="translate(645.606 815.229)" fill="none" stroke="#93d1d9" stroke-miterlimit="10" stroke-width="1"/><path d="M1794.019,866.506s15.369,26.724,24.16,38.014a179.525,179.525,0,0,0,17.953,19.063" transform="translate(-922.486 -97.633)" fill="none" stroke="#3aaa35" stroke-miterlimit="10" stroke-width="1"/><path d="M1792.654,883.8s13,19.839,22.158,32.054a124.732,124.732,0,0,0,19.8,20.636" transform="translate(-921.803 -106.288)" fill="none" stroke="#3aaa35" stroke-miterlimit="10" stroke-width="1"/><line x1="0.219" transform="translate(220.879 820.095)" fill="none" stroke="#93d1d9" stroke-miterlimit="10" stroke-width="1"/><line y1="3.911" transform="translate(132.343 810.692)" fill="none" stroke="#93d1d9" stroke-miterlimit="10" stroke-width="1"/><circle cx="61.21" cy="61.21" r="61.21" transform="translate(293.561 779.52) rotate(-45)" fill="none" stroke="#3aaa35" stroke-miterlimit="10" stroke-width="3"/><path d="M810.471,811.415c0,.224,0,.459,0,.683v.01q-.038,3.649-.4,7.21a75.672,75.672,0,0,1-1.963,11.034.039.039,0,0,1-.005.021c-.133.525-.27,1.045-.418,1.57a.038.038,0,0,0-.005.021A75.809,75.809,0,0,1,800.64,848.9c-.25.444-.5.887-.765,1.326q-1.82,3.082-3.931,5.976v.005h-.005q-1.43,1.981-2.988,3.86c-1.275,1.535-2.61,3.029-4,4.456-.117.128-.24.25-.362.378-.005,0-.01.005-.015.01q-.436.459-.9.9c-.005,0-.01.01-.01.015-.142.142-.285.28-.433.418A76.2,76.2,0,0,1,773,877.108c-.454.27-.907.535-1.367.79a75.475,75.475,0,0,1-16.9,7.011h-.006c-.54.153-1.081.3-1.626.439a76.183,76.183,0,0,1-18.2,2.36c-.24.005-.485.005-.73.005s-.489,0-.729-.005a76.488,76.488,0,0,1-18.208-2.36c-.541-.143-1.081-.286-1.617-.439h0a75.466,75.466,0,0,1-16.9-7.011c-.459-.255-.918-.52-1.367-.79-2.05-1.214-4.043-2.524-5.96-3.921a76.573,76.573,0,0,1-8.683-7.342q-.489-.474-.964-.964c-.132-.138-.27-.275-.4-.413-1.377-1.412-2.692-2.886-3.951-4.405a75.812,75.812,0,0,1-6.9-9.805c-.005,0-.01-.015-.016-.021-.27-.443-.53-.9-.785-1.356,0-.005,0-.01-.01-.021a75.561,75.561,0,0,1-7.006-16.882.009.009,0,0,0,0-.015c-.158-.546-.3-1.091-.444-1.637a76.317,76.317,0,0,1-2.355-18.182v-.01c-.005-.234-.005-.479-.005-.719s0-.48.005-.714v-.016a76.232,76.232,0,0,1,2.355-18.172v-.005c.143-.556.291-1.106.444-1.662.005-.01.01-.015.005-.015A75.652,75.652,0,0,1,667.662,774c.005,0,.01-.01.01-.015.275-.485.551-.964.831-1.438.005-.005.011-.01.011-.015a76.392,76.392,0,0,1,11.222-14.573s0,0,.01-.01q.474-.49.964-.964c.01,0,.01-.01.01-.01.133-.128.27-.265.4-.393a76.408,76.408,0,0,1,14.23-10.86c.439-.265.892-.525,1.341-.775.005,0,.016-.01.025-.016a75.654,75.654,0,0,1,16.862-7.005c.01,0,.025-.005.04-.005.53-.153,1.061-.29,1.6-.428.01,0,.016-.005.021-.005a76.247,76.247,0,0,1,18.208-2.366h.011c.234-.005.479-.005.719-.005s.485,0,.719.005h.01a76.189,76.189,0,0,1,18.2,2.361c.546.137,1.086.285,1.626.438.016,0,.031.005.041.005a75.651,75.651,0,0,1,16.862,7.005c.01.005.02.016.025.016.449.25.9.51,1.341.775q3.075,1.82,5.961,3.921a76.265,76.265,0,0,1,8.693,7.358s.01.01.016.02q.466.436.9.9s.015.015.02.015c.137.138.275.275.413.423a76.2,76.2,0,0,1,10.851,14.205c.005,0,.005.01.01.015.265.443.525.9.775,1.346,0,.01.011.015.016.026a75.622,75.622,0,0,1,7.016,16.913.056.056,0,0,0,.005.025c.153.53.291,1.06.428,1.591a76.48,76.48,0,0,1,2.361,18.233v.015C810.471,810.961,810.471,811.191,810.471,811.415Z" transform="translate(-354.051 -31.898)" fill="none" stroke="#3aaa35" stroke-miterlimit="10" stroke-width="3"/><ellipse cx="4.55" cy="4.523" rx="4.55" ry="4.523" transform="translate(373.991 777.641) rotate(-27.798)" fill="none" stroke="#3aaa35" stroke-miterlimit="10" stroke-width="1"/><g transform="translate(419.47 717.753)"><line x1="5.439" y2="14.877" fill="none" stroke="#3aaa35" stroke-miterlimit="10" stroke-width="3"/><line x1="13.754" y2="7.88" transform="translate(0 6.997)" fill="none" stroke="#3aaa35" stroke-miterlimit="10" stroke-width="3"/></g><g transform="translate(427.015 726.468)"><line x1="7.94" y2="13.707" fill="none" stroke="#3aaa35" stroke-miterlimit="10" stroke-width="3"/><line x1="14.914" y2="5.372" transform="translate(0 8.335)" fill="none" stroke="#3aaa35" stroke-miterlimit="10" stroke-width="3"/></g><g transform="translate(433.135 736.795)"><line x1="10.199" y2="12.12" fill="none" stroke="#3aaa35" stroke-miterlimit="10" stroke-width="3"/><line x1="15.62" y2="2.701" transform="translate(0 9.419)" fill="none" stroke="#3aaa35" stroke-miterlimit="10" stroke-width="3"/></g><g transform="translate(437.644 748.42)"><line x1="12.149" y2="10.165" fill="none" stroke="#3aaa35" stroke-miterlimit="10" stroke-width="3"/><line x1="15.852" y1="0.053" transform="translate(0 10.165)" fill="none" stroke="#3aaa35" stroke-miterlimit="10" stroke-width="3"/></g><g transform="translate(440.405 760.99)"><line x1="13.729" y2="7.901" fill="none" stroke="#3aaa35" stroke-miterlimit="10" stroke-width="3"/><line x1="15.602" y1="2.805" transform="translate(0 7.901)" fill="none" stroke="#3aaa35" stroke-miterlimit="10" stroke-width="3"/></g><g transform="translate(441.335 774.123)"><line x1="14.893" y2="5.396" fill="none" stroke="#3aaa35" stroke-miterlimit="10" stroke-width="3"/><line x1="14.878" y1="5.471" transform="translate(0 5.396)" fill="none" stroke="#3aaa35" stroke-miterlimit="10" stroke-width="3"/></g><g transform="translate(440.405 787.42)"><line x1="15.603" y2="2.728" fill="none" stroke="#3aaa35" stroke-miterlimit="10" stroke-width="3"/><line x1="13.702" y1="7.971" transform="translate(0 2.728)" fill="none" stroke="#3aaa35" stroke-miterlimit="10" stroke-width="3"/></g><g transform="translate(437.644 800.455)"><line x1="15.84" y1="0.023" fill="none" stroke="#3aaa35" stroke-miterlimit="10" stroke-width="3"/><line x1="12.109" y1="10.23" fill="none" stroke="#3aaa35" stroke-miterlimit="10" stroke-width="3"/></g><g transform="translate(433.135 810.125)"><line x1="15.596" y1="2.773" fill="none" stroke="#3aaa35" stroke-miterlimit="10" stroke-width="3"/><line x1="10.149" y1="12.177" fill="none" stroke="#3aaa35" stroke-miterlimit="10" stroke-width="3"/></g><g transform="translate(427.015 818.865)"><line x1="14.877" y1="5.439" fill="none" stroke="#3aaa35" stroke-miterlimit="10" stroke-width="3"/><line x1="7.88" y1="13.754" fill="none" stroke="#3aaa35" stroke-miterlimit="10" stroke-width="3"/></g><g transform="translate(419.47 826.409)"><line x1="13.707" y1="7.94" fill="none" stroke="#3aaa35" stroke-miterlimit="10" stroke-width="3"/><line x1="5.372" y1="14.914" fill="none" stroke="#3aaa35" stroke-miterlimit="10" stroke-width="3"/></g><g transform="translate(410.73 832.529)"><line x1="12.12" y1="10.199" fill="none" stroke="#3aaa35" stroke-miterlimit="10" stroke-width="3"/><line x1="2.701" y1="15.62" fill="none" stroke="#3aaa35" stroke-miterlimit="10" stroke-width="3"/></g><g transform="translate(401.007 837.039)"><line x1="10.165" y1="12.149" transform="translate(0.053)" fill="none" stroke="#3aaa35" stroke-miterlimit="10" stroke-width="3"/><line y1="15.852" x2="0.053" fill="none" stroke="#3aaa35" stroke-miterlimit="10" stroke-width="3"/></g><g transform="translate(387.95 839.8)"><line x1="7.901" y1="13.729" transform="translate(2.805)" fill="none" stroke="#93d1d9" stroke-miterlimit="10" stroke-width="3"/><line y1="15.602" x2="2.805" fill="none" stroke="#93d1d9" stroke-miterlimit="10" stroke-width="3"/></g><g transform="translate(374.654 840.73)"><line x1="5.396" y1="14.893" transform="translate(5.471)" fill="none" stroke="#93d1d9" stroke-miterlimit="10" stroke-width="3"/><line y1="14.878" x2="5.471" fill="none" stroke="#93d1d9" stroke-miterlimit="10" stroke-width="3"/></g><g transform="translate(361.524 839.8)"><line x1="2.728" y1="15.603" transform="translate(7.971)" fill="none" stroke="#93d1d9" stroke-miterlimit="10" stroke-width="3"/><line y1="13.702" x2="7.971" fill="none" stroke="#93d1d9" stroke-miterlimit="10" stroke-width="3"/></g><g transform="translate(348.96 837.039)"><line y1="15.84" x2="0.023" transform="translate(10.207)" fill="none" stroke="#3aaa35" stroke-miterlimit="10" stroke-width="3"/><line y1="12.109" x2="10.23" fill="none" stroke="#3aaa35" stroke-miterlimit="10" stroke-width="3"/></g><g transform="translate(337.343 832.529)"><line y1="15.596" x2="2.773" transform="translate(9.404)" fill="none" stroke="#3aaa35" stroke-miterlimit="10" stroke-width="3"/><line y1="10.149" x2="12.177" fill="none" stroke="#3aaa35" stroke-miterlimit="10" stroke-width="3"/></g><g transform="translate(327.026 826.41)"><line y1="14.877" x2="5.439" transform="translate(8.315)" fill="none" stroke="#3aaa35" stroke-miterlimit="10" stroke-width="3"/><line y1="7.88" x2="13.754" fill="none" stroke="#3aaa35" stroke-miterlimit="10" stroke-width="3"/></g><g transform="translate(318.322 818.865)"><line y1="13.707" x2="7.94" transform="translate(6.974)" fill="none" stroke="#3aaa35" stroke-miterlimit="10" stroke-width="3"/><line y1="5.372" x2="14.914" fill="none" stroke="#3aaa35" stroke-miterlimit="10" stroke-width="3"/></g><g transform="translate(311.495 810.125)"><line y1="12.12" x2="10.199" transform="translate(5.421)" fill="none" stroke="#3aaa35" stroke-miterlimit="10" stroke-width="3"/><line y1="2.701" x2="15.62" fill="none" stroke="#3aaa35" stroke-miterlimit="10" stroke-width="3"/></g><g transform="translate(306.755 800.402)"><line y1="10.165" x2="12.149" transform="translate(3.703 0.053)" fill="none" stroke="#3aaa35" stroke-miterlimit="10" stroke-width="3"/><line x2="15.852" y2="0.053" fill="none" stroke="#3aaa35" stroke-miterlimit="10" stroke-width="3"/></g><g transform="translate(304.243 787.344)"><line y1="7.901" x2="13.729" transform="translate(1.872 2.805)" fill="none" stroke="#3aaa35" stroke-miterlimit="10" stroke-width="3"/><line x2="15.602" y2="2.805" fill="none" stroke="#3aaa35" stroke-miterlimit="10" stroke-width="3"/></g><g transform="translate(304.022 774.049)"><line y1="5.396" x2="14.893" transform="translate(0 5.471)" fill="none" stroke="#3aaa35" stroke-miterlimit="10" stroke-width="3"/><line x2="14.878" y2="5.471" transform="translate(0.015)" fill="none" stroke="#3aaa35" stroke-miterlimit="10" stroke-width="3"/></g><g transform="translate(304.241 760.919)"><line y1="2.728" x2="15.603" transform="translate(0 7.971)" fill="none" stroke="#3aaa35" stroke-miterlimit="10" stroke-width="3"/><line x2="13.702" y2="7.971" transform="translate(1.902)" fill="none" stroke="#3aaa35" stroke-miterlimit="10" stroke-width="3"/></g><g transform="translate(306.766 748.355)"><line x2="15.84" y2="0.023" transform="translate(0 10.207)" fill="none" stroke="#3aaa35" stroke-miterlimit="10" stroke-width="3"/><line x2="12.109" y2="10.23" transform="translate(3.731)" fill="none" stroke="#3aaa35" stroke-miterlimit="10" stroke-width="3"/></g><g transform="translate(311.52 736.738)"><line x2="15.596" y2="2.773" transform="translate(0 9.404)" fill="none" stroke="#3aaa35" stroke-miterlimit="10" stroke-width="3"/><line x2="10.149" y2="12.177" transform="translate(5.447)" fill="none" stroke="#3aaa35" stroke-miterlimit="10" stroke-width="3"/></g><g transform="translate(318.358 726.42)"><line x2="14.877" y2="5.439" transform="translate(0 8.315)" fill="none" stroke="#3aaa35" stroke-miterlimit="10" stroke-width="3"/><line x2="7.88" y2="13.754" transform="translate(6.997)" fill="none" stroke="#3aaa35" stroke-miterlimit="10" stroke-width="3"/></g><g transform="translate(327.073 717.716)"><line x2="13.707" y2="7.94" transform="translate(0 6.974)" fill="none" stroke="#3aaa35" stroke-miterlimit="10" stroke-width="3"/><line x2="5.372" y2="14.914" transform="translate(8.335)" fill="none" stroke="#3aaa35" stroke-miterlimit="10" stroke-width="3"/></g><line y1="56.782" transform="translate(380.125 718.31)" fill="none" stroke="#3aaa35" stroke-miterlimit="10" stroke-width="3"/><line y1="49.174" x2="28.391" transform="translate(382.339 726.51)" fill="none" stroke="#3aaa35" stroke-miterlimit="10" stroke-width="3"/><line y1="28.391" x2="49.174" transform="translate(383.96 748.915)" fill="none" stroke="#3aaa35" stroke-miterlimit="10" stroke-width="3"/><line x2="56.782" transform="translate(384.554 779.52)" fill="none" stroke="#3aaa35" stroke-miterlimit="10" stroke-width="3"/><line x2="49.174" y2="28.391" transform="translate(383.96 781.734)" fill="none" stroke="#3aaa35" stroke-miterlimit="10" stroke-width="3"/><line x2="28.391" y2="49.174" transform="translate(382.339 783.355)" fill="none" stroke="#3aaa35" stroke-miterlimit="10" stroke-width="3"/><line y2="56.782" transform="translate(380.125 783.948)" fill="none" stroke="#3aaa35" stroke-miterlimit="10" stroke-width="3"/><line x1="28.391" y2="49.174" transform="translate(349.52 783.355)" fill="none" stroke="#3aaa35" stroke-miterlimit="10" stroke-width="3"/><line x1="49.174" y2="28.391" transform="translate(327.115 781.734)" fill="none" stroke="#3aaa35" stroke-miterlimit="10" stroke-width="3"/><line x1="56.782" transform="translate(318.915 779.52)" fill="none" stroke="#3aaa35" stroke-miterlimit="10" stroke-width="3"/><line x1="49.174" y1="28.391" transform="translate(327.115 748.915)" fill="none" stroke="#3aaa35" stroke-miterlimit="10" stroke-width="3"/><line x1="28.391" y1="49.174" transform="translate(349.52 726.51)" fill="none" stroke="#3aaa35" stroke-miterlimit="10" stroke-width="3"/><circle cx="6.261" cy="6.261" r="6.261" transform="translate(315.518 714.913)" fill="#3aaa35" stroke="#3aaa35" stroke-miterlimit="10" stroke-width="1"/><circle cx="6.261" cy="6.261" r="6.261" transform="translate(302.406 732.002)" fill="#3aaa35" stroke="#3aaa35" stroke-miterlimit="10" stroke-width="1"/><circle cx="6.261" cy="6.261" r="6.261" transform="translate(294.162 751.903)" fill="#3aaa35" stroke="#3aaa35" stroke-miterlimit="10" stroke-width="1"/><circle cx="6.261" cy="6.261" r="6.261" transform="translate(291.351 773.259)" fill="#3aaa35" stroke="#3aaa35" stroke-miterlimit="10" stroke-width="1"/><path d="M646.416,930.328a6.258,6.258,0,0,1-7.664-4.426,6.107,6.107,0,0,1-.209-1.9,6.261,6.261,0,0,1,12.018-2.167,6.334,6.334,0,0,1,.286.826,5.733,5.733,0,0,1,.158.811.009.009,0,0,1,0,.015A6.254,6.254,0,0,1,646.416,930.328Z" transform="translate(-344.375 -123.405)" fill="#3aaa35" stroke="#3aaa35" stroke-miterlimit="10" stroke-width="1"/><circle cx="6.261" cy="6.261" r="6.261" transform="translate(302.406 814.515)" fill="#3aaa35" stroke="#3aaa35" stroke-miterlimit="10" stroke-width="1"/><path d="M691.963,1002.735a6.261,6.261,0,1,1-.51-9.31,5.838,5.838,0,0,1,.964.964A6.254,6.254,0,0,1,691.963,1002.735Z" transform="translate(-365.758 -160.442)" fill="#93d1d9" stroke="#3aaa35" stroke-miterlimit="10" stroke-width="1"/><path d="M727.158,1027.68a6.261,6.261,0,1,1-2.988-8.9,5.84,5.84,0,0,1,.7.347,6.026,6.026,0,0,1,.668.443A6.266,6.266,0,0,1,727.158,1027.68Z" transform="translate(-382.868 -173.573)" fill="#93d1d9" stroke="#93d1d9" stroke-miterlimit="10" stroke-width="1"/><path d="M890,1029.969a6.26,6.26,0,0,1-6.93-10.4,6.112,6.112,0,0,1,.668-.443,5.889,5.889,0,0,1,.7-.347A6.259,6.259,0,0,1,890,1029.969Z" transform="translate(-465.489 -173.573)" fill="#93d1d9" stroke="#93d1d9" stroke-miterlimit="10" stroke-width="1"/><path d="M925.5,1002.736a6.26,6.26,0,0,1-9.29-8.367c0-.005,0-.011.01-.016a6.222,6.222,0,0,1,.428-.474,6.13,6.13,0,0,1,.474-.428c.005-.005.01-.01.015-.01a6.26,6.26,0,0,1,8.362,9.3Z" transform="translate(-482.6 -160.442)" fill="#93d1d9" stroke="#3aaa35" stroke-miterlimit="10" stroke-width="1"/><path d="M952.734,967.233a6.261,6.261,0,0,1-11.182-5.583,5.971,5.971,0,0,1,.337-.678,6.463,6.463,0,0,1,.428-.648,6.281,6.281,0,0,1,5.415-2.478,6.352,6.352,0,0,1,2.713.831A6.264,6.264,0,0,1,952.734,967.233Z" transform="translate(-495.728 -143.326)" fill="#3aaa35" stroke="#3aaa35" stroke-miterlimit="10" stroke-width="1"/><circle cx="6.261" cy="6.261" r="6.261" transform="translate(453.565 794.615)" fill="#3aaa35" stroke="#3aaa35" stroke-miterlimit="10" stroke-width="1"/><circle cx="6.261" cy="6.261" r="6.261" transform="translate(456.377 773.259)" fill="#3aaa35" stroke="#3aaa35" stroke-miterlimit="10" stroke-width="1"/><circle cx="6.261" cy="6.261" r="6.261" transform="translate(453.565 751.903)" fill="#3aaa35" stroke="#3aaa35" stroke-miterlimit="10" stroke-width="1"/><circle cx="6.261" cy="6.261" r="6.261" transform="translate(445.322 732.002)" fill="#3aaa35" stroke="#3aaa35" stroke-miterlimit="10" stroke-width="1"/><circle cx="6.261" cy="6.261" r="6.261" transform="translate(432.209 714.913)" fill="#3aaa35" stroke="#3aaa35" stroke-miterlimit="10" stroke-width="1"/><line x1="0.02" transform="translate(663.518 825.622)" fill="none" stroke="#93d1d9" stroke-miterlimit="10" stroke-width="1"/><line x1="0.515" transform="translate(132.343 810.692)" fill="none" stroke="#93d1d9" stroke-miterlimit="10" stroke-width="1"/><line x1="0.969" transform="translate(82.95 810.692)" fill="none" stroke="#93d1d9" stroke-miterlimit="10" stroke-width="1"/><path d="M940.5,827.058V810.864h-4.813l-3.329-5.18-17.678,3.146v3.885h-1.662v13.976h-9.071V825.62h-23.97v-66.9l-2.172-11.524-1.8,7.337h-5.17L869.164,746l-1.769,2.6-5.828-8.2-8.836,19.013h-4.166l-1.713-5.461-1.02,7.312L789.846,746.18v-16.75l-2.866-12.956-3.564,12.446-4.441-8.953-2.57,2.5L766.9,703.034l-6.521,19.85h-2.29l-6.251,13.67-4.3-14.573-2.754,12.355v91.243l6.527.041H664.761v-8.627c-2.009.984-3.966,1.922-5.858,2.8-4.462,2.075-8.556,3.875-12.074,5.359v-9.744c3.605-1.677,7.709-3.661,12.074-5.894,1.907-.979,3.87-2,5.858-3.075V693.81h-6.3V671.365H639.1v15.261h-8.071v39.807H613.784v55.4H600.736v34.637c-4.166-2.269-17.693-8.872-33.723-8.872a65.287,65.287,0,0,0-31.169,8.184h-5.8V763.588l-1.8-9.586-1.882,8.55h-2.36L520.6,749.729l-3.391,13.119H515l-2.361-9.728L511.022,763v14.746H496.128v37H474.606v-1.912h-4.278v-2.509h-17.1v4.2a6.348,6.348,0,0,1,2.712.831,6.263,6.263,0,0,1-2.712,11.671v1.142h-13.1c-.124.15-.256.294-.382.443H322.95c-.125-.149-.257-.293-.381-.443H299.538V806.77A6.245,6.245,0,0,1,295.6,802.5a6.1,6.1,0,0,1-.209-1.9h-5.736v-9.142h1.479v-8.7h-9.178V770.813s1.214-19.671-16.851-23.312v-4.415l-2.305-.016.026-14.266-1.861-1.917-.021-6.149-1.55-1.642.031-6.6h-.016a2.835,2.835,0,1,0-3.421.112v6.552l-1.59,1.591v6.4l-1.79,1.785v14.3h-1.989v4.844c-16.209,4.895-16.433,23.837-16.433,23.837v11.723h-7.041v7.373h1.621v19.019h-6.633l-.031,10.065H178.756v-5.308H174v-2.656h-8.071V801.737h-8.4v-43.9h3.426v-2.988h-2.213v-6.521h2.544V729.084h-3.758v-7.409L151,715.154v-6.047l-3.243-8.622-1.841-9.361-1.55,9.214-3.61,8.479v6.853l-6.746,6.047v7.444h-3.574V749.1h2.285v5.787h-2.137v2.5h2.983v53.3H85.142v-7.556h-7.47V766.285c0-32.25-8.332-58.4-18.611-58.4s-18.606,26.147-18.606,58.4v53.573H27.719V801.12H22.161v15.765H16.869V769.778h-4.64v-7.3H3.82v7.3H-9.7V816h-5.946l-5.527,5.532H-32.891v47.852H962.62v-36.4ZM355.539,863.612c.039.039.075.082.115.12C355.614,863.694,355.578,863.651,355.539,863.612Zm-1.323-1.994.012.031Zm.2.432.05.1Zm.252.451c.025.041.052.081.078.121C354.719,862.581,354.692,862.541,354.667,862.5Zm.3.442c.031.042.065.082.1.123C355.029,863.025,355,862.985,354.964,862.943Zm2.841,2.142c.185.069.373.132.568.184C358.179,865.216,357.99,865.154,357.805,865.085Zm-1.952-1.176c.076.068.151.135.231.2C356,864.044,355.929,863.976,355.853,863.909Zm.435.352c.086.064.174.127.264.186C356.462,864.387,356.374,864.325,356.288,864.261Zm.472.316c.1.06.2.116.3.171C356.959,864.693,356.859,864.637,356.76,864.577Zm.507.276c.116.057.236.107.357.157C357.5,864.961,357.383,864.91,357.267,864.853Zm8.887-4.532c-.031.172-.066.344-.112.517C366.088,860.666,366.123,860.493,366.154,860.321Zm.1-1.194c0,.166,0,.334-.015.5C366.249,859.461,366.256,859.294,366.253,859.127Zm-.029.662q-.017.187-.046.375C366.2,860.039,366.213,859.914,366.224,859.789Zm9.068.666c-.012.047-.023.094-.033.142C375.27,860.55,375.28,860.5,375.292,860.455Zm-.136.687c-.008.06-.018.12-.025.181C375.138,861.262,375.148,861.2,375.156,861.142Zm12.248-.686c.012.047.023.094.034.141C387.427,860.55,387.416,860.5,387.4,860.456Zm.136.687c.009.06.018.119.026.18C387.559,861.262,387.549,861.2,387.54,861.142Zm9-.821c.031.172.066.344.112.517C396.609,860.666,396.574,860.494,396.543,860.321Zm-.1-1.194c0,.167,0,.336.015.5C396.447,859.463,396.44,859.294,396.443,859.128Zm.029.661q.017.188.047.377Q396.489,859.977,396.472,859.789Zm7.852,5.48c.194-.052.383-.115.568-.184C404.706,865.154,404.518,865.216,404.324,865.269Zm.749-.258c.121-.049.241-.1.357-.157C405.313,864.91,405.193,864.961,405.073,865.01Zm.562-.263c.1-.054.2-.11.3-.17C405.838,864.637,405.737,864.693,405.635,864.747Zm.51-.3c.09-.059.178-.122.264-.186C406.322,864.325,406.235,864.387,406.144,864.447Zm.468-.339c.079-.063.154-.131.23-.2C406.768,863.976,406.692,864.044,406.613,864.108Zm.43-.376c.04-.038.075-.079.113-.118C407.117,863.653,407.082,863.694,407.042,863.732Zm1.438-2.114-.012.03Zm-.2.431-.05.1Zm-.251.451c-.025.041-.052.081-.078.122C407.977,862.581,408,862.541,408.029,862.5Zm-.3.443c-.031.042-.064.081-.1.122C407.667,863.024,407.7,862.985,407.732,862.943ZM846.387,825.62H788.831l.2-57.51,57.352,13.073Z" transform="translate(-8.445)" fill="#3aaa35" stroke="#3aaa35" stroke-miterlimit="10" stroke-width="1"/><path d="M666.836,936.6l-.531,6.159,31.623,27.572,20.316-2.552A14.293,14.293,0,0,0,723.965,952c-1.159-3.944.555-5.965,4.617-5.1,3.131.665,6.207,1.572,9.321,2.3a4.593,4.593,0,0,0,5.642-3.284c.2-.64.381-1.289.568-1.932-.677-3.6-3.54-5.538-5.945-7.824-1.921-1.741-4.373-2.946-5.51-5.473-1.194-1.47-.638-2.584.736-3.5,2.3-1.538,5.034-2.088,7.551-3.123,5.271-2.159,6.483-6.391,4.778-10.973-1.009-2.709-3.455-3.208-5.93-3.384-1.376-.1-2.771.173-4.16.211-2.3.067-3.472-1.033-3.642-3.422a26.509,26.509,0,0,1,.978-8.09c.779-3.254-1.189-7.118-4.016-8.266-3.961-1.6-7.775-.836-9.778,2.21-2.052,3.117-1.587,6.537-.387,9.775.979,2.639-1.147,6.057-3.54,7.118-2.316,1.024-4.714.1-6.279-2.473-2.46-4.05-6.158-4.742-10.432-3.933a3.4,3.4,0,0,1-.585.476c-5.514,2.693-5.459,10.185-.522,13.378a9.267,9.267,0,0,1,2.861,3.43c1.248,2.236,1.1,4.954-.556,6.2-1.974,1.475-3.778.913-5.59-.592-2.153-1.794-4.211-1.359-5.744.943-.357.527-.193,1.394-1.036,1.611-1.4,1.5-3.189.632-4.81.8C676.632,930.163,671.053,931.968,666.836,936.6Z" transform="translate(-358.268 -109.05)" fill="#93d1d9"/><path d="M732.853,1036.847c-2.639,1.474-10.553,8.478-11.018,12.511a26.4,26.4,0,0,0,.863,11.4c1.283,5.126,1.354,9.781-4.275,13.818s-12.174.887-12.359-3.083.238-6.645-3.882-6.893-8.447,9.2-10.762,14.037-7.1,7.02-13.411,4.945-7.961-11.081-5.873-16.1-.184-7.871-1.62-9.071c-2.759-2.306-4.92-1.789-8.339-.784-4.249,1.249-4.482,6.817-10.4,8.533-3.344.97-9.672.966-12.857-5.466s1.448-12.656,4.711-14.426,13.084-4.987,13.519-8.533c.58-4.718-7.435-8.465-6.377-13.509.656-3.124,1.9-8.832,10.164-9.527s13.281,8.4,18.523,9.108c4.208.565,10.61-3.13,20.573-12.841,13.492-13.15,36.282-8.9,44.031-7.742,13.9,2.084,17.42,9.777,43.664,6.737l-3.293,9.767Z" transform="translate(-344.032 -165.244)" fill="#045f29"/><path d="M193.4,995.176a26.005,26.005,0,0,0-2.774,7.161c-1.109,4.895-3.953,12.676-7.469,14.888-4.471,2.812-7.146,4.077-13.984,5.822s-12.373,4.4-13.666,12.25,6.457,12.4,11.256,10.26,7.692-4.116,10.524-.24-5.652,13.625-9.926,18.709-3.9,11.035,2.434,15.98,17.979,1.293,22.618-3.681,9.4-4.421,11.7-3.721c4.422,1.346,5.144,3.757,6.065,7.681,1.146,4.878-5.278,8.36-3.655,15.138.917,3.831,4.822,10.005,14.375,9.354s14.037-8.811,14.114-13.03-2.182-15.686,1.731-18.183c5.209-3.323,14.57,2.31,19.868-1.672,3.281-2.466,9.246-7.022,4.974-15.49s-21.114-6.868-22.164-12.756c-.9-5.062,15.384-13.36,19.97-15.588q1.108-.538,2.26-.965h0c20.554-7.642,22.771-35.833,3.666-46.594L239.571,966a25.762,25.762,0,0,0-35.009,9.66Z" transform="translate(-102.634 -145.749)" fill="#045f29"/><path d="M1177.69,1013.323c4.938,3.837,13.174.331,19.045,3.321,7.978,4.061-7.263,16.108,6.481,21.695s16.147-17.657,23.246-15.779,9.914,23.093,20.465,20.523-1.471-26.7,5.975-30.095,11.949,13.32,23.764,10.033c6.6-1.836,26.835-18.274.713-28.9-10.306-4.19-24.626-3.592-25.9-21.472s-24.717-10.926-19.08-3.1-7.376,16.563-14.544,1.513c-.105-.22-.219-.41-.33-.617-.046-.08-.084-.16-.13-.242a8.511,8.511,0,0,0-4.679-4.252,10.2,10.2,0,0,0-14.439,7.155,11.068,11.068,0,0,0,1.375,8.508,7.215,7.215,0,0,0,1.926,2.335c9.487,7.638-2.686,18.155-9.552,13.415a24.8,24.8,0,0,0-5.89-2.686l0,.031c-.153-.045-.283-.124-.438-.165a10.055,10.055,0,0,0-12.276,7.514,10.588,10.588,0,0,0,4.269,11.262" transform="translate(-611.833 -145.115)" fill="#39a935"/><path d="M1161.51,934.5c2.467-1.746,9.592-9.551,9.626-13.612a26.388,26.388,0,0,0-2.07-11.245c-1.82-4.96-2.385-9.582,2.782-14.194s12.011-2.176,12.616,1.752.47,6.632,4.592,6.441,7.421-10.05,9.209-15.1,6.316-7.734,12.81-6.342,9.094,10.172,7.551,15.389,1.019,7.806,2.574,8.847c2.988,2,5.083,1.256,8.375-.107,4.092-1.694,3.733-7.254,9.433-9.589,3.222-1.32,9.515-1.989,13.365,4.069s-.094,12.738-3.151,14.845-12.48,6.349-12.536,9.921c-.075,4.753,8.293,7.626,7.777,12.755-.32,3.176-.955,8.985-9.094,10.554s-14.1-6.945-19.386-7.088c-4.244-.115-10.218,4.241-19.092,14.955-12.018,14.509-35.13,12.71-42.958,12.379-14.045-.595-18.361-7.87-44.133-2.058l2.236-10.062Z" transform="translate(-580.158 -105.303)" fill="#045f29"/><path d="M1186.722,1010.019c0,17.532-13.767,31.745-30.749,31.745s-30.744-14.213-30.744-31.745,13.763-31.747,30.744-31.747,30.749,14.212,30.749,31.747" transform="translate(-587.877 -153.552)" fill="#007f83"/><path d="M443.013,975.014c0,17.532-13.767,31.745-30.749,31.745s-30.744-14.213-30.744-31.745,13.763-31.747,30.744-31.747,30.749,14.212,30.749,31.747" transform="translate(-215.784 -136.038)" fill="#007f83"/><path d="M-46.776,1034.806c3.4,2.894,9.382.657,13.472,2.976,5.561,3.15-5.693,11.254,3.93,15.677S-17.3,1041.385-12.3,1042.95s6.331,16.783,13.939,15.288.936-15.407,5.658-18.449c3.6-2.321,5.975,4.454,14.5,2.487,4.766-1.1,21.4-9.567,3.115-17.976-7.217-3.317-17.446-3.348-17.784-16.138s-17.276-8.581-13.507-2.82-5.787,11.575-10.418.614c-.066-.16-.142-.3-.214-.45-.031-.059-.056-.117-.085-.177a6.078,6.078,0,0,0-3.2-3.181,7.447,7.447,0,0,0-1.19-.512,7.445,7.445,0,0,0-9.333,5.153,7.892,7.892,0,0,0,.709,6.11,5.15,5.15,0,0,0,1.3,1.726c6.521,5.75-2.493,12.86-7.238,9.261a17.736,17.736,0,0,0-4.115-2.1v.023c-.107-.037-.2-.1-.305-.131a7.179,7.179,0,0,0-9,4.966,7.558,7.558,0,0,0,2.686,8.167" transform="translate(0 -164.316)" fill="#39a935"/><path d="M1688.818,1043.056c3.4,2.894,9.383.657,13.472,2.976,5.561,3.15-5.692,11.254,3.93,15.677s12.078-12.074,17.078-10.509,6.332,16.783,13.939,15.288.936-15.407,5.658-18.448c3.6-2.321,5.975,4.454,14.5,2.487,4.766-1.1,21.4-9.567,3.115-17.976-7.217-3.317-17.446-3.348-17.784-16.138s-17.276-8.581-13.507-2.82-5.787,11.575-10.418.614c-.067-.161-.142-.3-.214-.45-.031-.059-.056-.117-.085-.178a6.077,6.077,0,0,0-3.2-3.181,7.281,7.281,0,0,0-10.523,4.641,7.894,7.894,0,0,0,.708,6.111,5.16,5.16,0,0,0,1.3,1.726c6.521,5.749-2.494,12.86-7.238,9.261a17.731,17.731,0,0,0-4.115-2.1v.022c-.107-.036-.2-.1-.305-.131a7.179,7.179,0,0,0-9,4.966,7.559,7.559,0,0,0,2.686,8.167" transform="translate(-868.353 -168.444)" fill="#39a935"/><path d="M1807.411,1009.509c-38.446-17.177-60.042-10.643-60.042-10.643s-3.846,11.852,13.039,21.35c15.923,8.957,24.543,10.025,21.328,10.144.04-2.385,1.738-4.3,3.784-4.282a4,4,0,0,1,3.646,4.336l-.486,28.2c.006.008.013,0,.012.008l-.106,6.18a3.707,3.707,0,1,0,7.359.687l.383-22.155c.04-2.376,1.739-4.3,3.788-4.285a4.008,4.008,0,0,1,3.643,4.338l-.344,19.948c0,.009.016.009.012.016l-.339,19.54c-.036,2.382,1.594,4.322,3.642,4.336a3.971,3.971,0,0,0,3.721-3.663l.389-22.292a4.076,4.076,0,0,1,3.787-4.274c2.049.007,3.68,1.948,3.634,4.327l-.453,26.6c.023.019.042.035.059.052l-.144,8.748c-.061,3.281,2.182,5.954,5.018,5.971s5.171-2.623,5.225-5.9l.045-2.726a3.756,3.756,0,0,1-.039-.593l.517-30.157c.036-2.376,1.735-4.293,3.787-4.274s3.678,1.959,3.64,4.335l-.417,34.231c-.032,2.376,1.59,4.319,3.649,4.326,2.042.022,3.745-1.9,3.787-4.274l.546-30.211a4.088,4.088,0,0,1,3.79-4.273c2.05.014,3.68,1.951,3.636,4.335l-.65,49.906c-.033,2.377,1.593,4.322,3.642,4.339a4.094,4.094,0,0,0,3.787-4.277l.524-25.44c.038-2.377,1.735-4.3,3.787-4.281a4,4,0,0,1,3.636,4.343l-.77,41.715c-.047,2.384,1.586,4.328,3.639,4.336s3.752-1.905,3.791-4.274l.212-12.217c.007-.007.013-.01.033-.01l.3-17.547c.042-2.368,1.735-4.3,3.787-4.274s3.68,1.95,3.643,4.335l-.316,18.356c-.179,10.185,2.417,15.1,5.805,16.726,5.27,2.182,9.506-1.266,11.187-10.874,3.831-29.6-24.142-89.674-89.53-118.875" transform="translate(-898.958 -163.245)" fill="#39a935"/><path d="M155.588,977.126l7.092,3.678,8.252,53.591L154.1,1054.816a18.471,18.471,0,0,1-21.181-4.655c-3.505-3.992-6.9-3.517-8.758,1.518-1.438,3.879-2.573,7.864-3.93,11.769a5.935,5.935,0,0,1-7.485,3.891c-.835-.227-1.671-.475-2.5-.715-3.461-3.225-3.6-7.694-4.435-11.9-.574-3.3-.2-6.811-2.169-9.8-.78-2.32-2.381-2.482-4.33-1.615-3.273,1.453-5.759,4.054-8.63,6.087-6,4.264-11.461,2.663-15.286-2.366-2.262-2.974-1.115-5.99.4-8.814.842-1.571,2.1-2.907,3.107-4.4,1.66-2.46,1.272-4.506-1.219-6.341a34.258,34.258,0,0,0-9.511-4.524c-4.091-1.4-6.951-6.218-6.251-10.1.986-5.435,4.461-9.069,9.172-9.15,4.822-.085,8.235,2.786,10.941,6.334,2.2,2.893,7.407,2.933,10.22,1.053,2.719-1.821,3.371-5.075,1.639-8.565-2.722-5.485-.922-10,2.917-14.111a4.4,4.4,0,0,0,.923-.309c6.753-4.16,14.9,1.078,14.97,8.677a11.986,11.986,0,0,0,1.768,5.495c1.579,2.908,4.647,4.63,7.154,3.678,2.976-1.136,3.608-3.494,3.218-6.513-.471-3.591,1.427-5.538,5-5.621.822-.025,1.656.753,2.476-.018,2.6-.487,2.895-3.046,4.2-4.7C141.791,983.378,147.619,978.533,155.588,977.126Z" transform="translate(-55.831 -152.979)" fill="#93d1d9"/><path d="M1755.827,1048.757l-.072,6.588-27.185,26.376-18.995-1.519a13.54,13.54,0,0,1-6.075-14.544c.886-3.748-.8-5.569-4.535-4.581-2.876.758-5.69,1.74-8.548,2.557a4.29,4.29,0,0,1-5.4-2.836c-.214-.592-.416-1.193-.62-1.787.455-3.4,3.021-5.345,5.145-7.592,1.7-1.715,3.919-2.95,4.855-5.369,1.038-1.429.468-2.45-.853-3.249-2.215-1.344-4.776-1.741-7.165-2.6-5-1.8-6.331-5.713-4.968-10.083.806-2.584,3.055-3.156,5.345-3.428,1.273-.152,2.583.043,3.875.019,2.136-.036,3.176-1.117,3.218-3.365a25.164,25.164,0,0,0-1.3-7.544c-.881-3.017.761-6.725,3.332-7.922,3.6-1.675,7.183-1.119,9.189,1.651,2.056,2.835,1.789,6.061.83,9.148-.782,2.517,1.358,5.629,3.632,6.522,2.2.86,4.384-.105,5.713-2.589,2.09-3.9,5.493-4.711,9.5-4.136a3.174,3.174,0,0,0,.566.421c5.253,2.289,5.562,9.315,1.129,12.521a8.622,8.622,0,0,0-2.492,3.339c-1.051,2.15-.787,4.693.816,5.789,1.9,1.3,3.553.694,5.164-.8,1.913-1.775,3.847-1.455,5.382.637.357.479.246,1.3,1.041,1.466,1.368,1.347,2.993.456,4.506.544C1746.416,1043.147,1751.686,1044.6,1755.827,1048.757Z" transform="translate(-865.895 -167.891)" fill="#93d1d9"/><path d="M802.421,1016.871c40.067-12.953,60.837-4.139,60.837-4.139s5.052,78.095-30.932,59.6c-9.746-5.009-9.8-32.437-6.617-31.973.217-2.376-1.266-4.462-3.3-4.664a4.005,4.005,0,0,0-4.089,3.92l-2.544,28.091c-.007.007-.013,0-.013.007l-.557,6.156a3.707,3.707,0,1,1-7.391-.106l2-22.068c.215-2.367-1.268-4.457-3.307-4.667a4.008,4.008,0,0,0-4.087,3.922l-1.8,19.869c0,.009-.018.008-.013.015l-1.759,19.464c-.219,2.372-2.048,4.126-4.086,3.92a3.972,3.972,0,0,1-3.306-4.042l2.005-22.2a4.076,4.076,0,0,0-3.306-4.656c-2.038-.213-3.867,1.542-4.077,3.912l-2.4,26.493c-.025.016-.046.031-.064.046l-.795,8.713c-.292,3.268-2.809,5.686-5.63,5.4s-4.86-3.163-4.562-6.422l.247-2.715a3.686,3.686,0,0,0,.1-.585l2.722-30.039c.219-2.366-1.264-4.455-3.306-4.656s-3.867,1.553-4.084,3.919l-3.258,34.078c-.222,2.366-2.044,4.124-4.092,3.91-2.033-.2-3.52-2.288-3.306-4.656l2.7-30.1a4.088,4.088,0,0,0-3.31-4.655c-2.04-.206-3.869,1.545-4.081,3.92l-4.708,49.688c-.222,2.367-2.048,4.126-4.086,3.922a4.093,4.093,0,0,1-3.306-4.658l2.21-25.349c.217-2.367-1.264-4.458-3.306-4.662a4,4,0,0,0-4.081,3.928l-3.711,41.557c-.209,2.375-2.042,4.132-4.083,3.92-2.043-.2-3.526-2.3-3.311-4.656l1.1-12.169c-.006-.007-.013-.011-.033-.013l1.587-17.477c.212-2.359-1.264-4.458-3.306-4.656s-3.868,1.544-4.087,3.918l-1.655,18.284c-.914,10.145-4.023,14.755-7.566,16.007-5.474,1.6-9.316-2.279-9.955-12.011-.634-29.844,33.623-86.566,101.767-108.583" transform="translate(-375.448 -169.328)" fill="#39a935"/><path d="M407.784,985.486c36.958-20.18,59.006-15.383,59.006-15.383s19.49,75.792-19.307,64.312c-10.507-3.109-15.662-30.048-12.448-30.185-.229-2.375-2.074-4.148-4.112-3.968a4,4,0,0,0-3.289,4.612l2.726,28.075c-.006.008-.013.005-.012.009l.6,6.152a3.707,3.707,0,1,1-7.281,1.27l-2.143-22.055c-.229-2.365-2.075-4.144-4.117-3.97a4.009,4.009,0,0,0-3.286,4.615l1.93,19.857c0,.008-.016.01-.011.017l1.892,19.451c.226,2.372-1.244,4.435-3.285,4.612a3.971,3.971,0,0,1-4-3.356l-2.16-22.191a4.075,4.075,0,0,0-4.115-3.959c-2.042.169-3.513,2.234-3.278,4.6l2.566,26.477c-.021.021-.039.039-.054.056l.84,8.709c.321,3.266-1.7,6.109-4.528,6.351s-5.363-2.2-5.677-5.462l-.261-2.714a3.757,3.757,0,0,0-.009-.594l-2.913-30.021c-.225-2.365-2.071-4.141-4.115-3.959s-3.511,2.245-3.284,4.61l3.138,34.089c.222,2.366-1.241,4.432-3.293,4.6-2.034.184-3.884-1.593-4.114-3.959l-2.946-30.072a4.089,4.089,0,0,0-4.118-3.958c-2.043.177-3.514,2.238-3.28,4.611l4.616,49.7c.221,2.367-1.245,4.435-3.285,4.614a4.093,4.093,0,0,1-4.115-3.962L363.71,1071.8c-.227-2.366-2.071-4.145-4.115-3.966a4,4,0,0,0-3.28,4.618l4.084,41.522c.237,2.372-1.237,4.44-3.282,4.611-2.043.186-3.892-1.6-4.119-3.958l-1.183-12.161c-.007-.006-.014-.009-.034-.006l-1.691-17.468c-.23-2.357-2.071-4.145-4.114-3.959s-3.513,2.236-3.287,4.61l1.774,18.273c.989,10.138-1.208,15.246-4.457,17.135-5.08,2.594-9.577-.506-12.015-9.95-6.174-29.205,16.934-91.309,79.793-125.617" transform="translate(-188.519 -149.215)" fill="#39a935"/><path d="M142.442,988.8c38.143-17.839,59.849-11.679,59.849-11.679s14.732,76.859-23.275,62.985c-10.293-3.758-13.76-30.965-10.544-30.9-.08-2.385-1.811-4.269-3.857-4.217a4,4,0,0,0-3.57,4.4l.973,28.19c-.006.008-.013,0-.012.008l.213,6.177a3.707,3.707,0,1,1-7.347.814l-.765-22.145c-.081-2.374-1.813-4.264-3.862-4.219a4.009,4.009,0,0,0-3.568,4.4l.689,19.939c0,.009-.017.01-.012.016l.677,19.531c.077,2.381-1.518,4.349-3.567,4.4a3.971,3.971,0,0,1-3.784-3.6l-.774-22.282a4.075,4.075,0,0,0-3.86-4.208c-2.049.042-3.646,2.011-3.559,4.389l.912,26.586c-.022.02-.041.036-.057.053l.3,8.745c.117,3.279-2.079,5.991-4.914,6.057s-5.215-2.533-5.325-5.8l-.092-2.725a3.73,3.73,0,0,0,.029-.593l-1.037-30.144c-.077-2.375-1.809-4.262-3.861-4.208s-3.644,2.022-3.564,4.4l1.008,34.218c.073,2.375-1.516,4.346-3.574,4.389-2.042.057-3.778-1.832-3.86-4.208l-1.068-30.2a4.089,4.089,0,0,0-3.863-4.207c-2.05.05-3.647,2.015-3.561,4.4l1.512,49.888c.074,2.376-1.518,4.349-3.566,4.4a4.094,4.094,0,0,1-3.861-4.211l-.962-25.427c-.079-2.376-1.809-4.266-3.861-4.215a4,4,0,0,0-3.561,4.4l1.49,41.7c.088,2.382-1.511,4.354-3.563,4.4s-3.785-1.84-3.865-4.208l-.423-12.211c-.007-.006-.013-.01-.034-.008l-.6-17.539c-.083-2.367-1.809-4.266-3.86-4.208s-3.646,2.014-3.568,4.4l.633,18.348c.356,10.18-2.155,15.142-5.515,16.824-5.232,2.273-9.527-1.1-11.372-10.678-4.343-29.533,22.588-90.077,87.462-120.4" transform="translate(-52.184 -152.463)" fill="#39a935"/><path d="M1327.227,1023.846c0,12.843-10.085,23.254-22.523,23.254s-22.523-10.411-22.523-23.254,10.083-23.256,22.523-23.256,22.523,10.411,22.523,23.256" transform="translate(-666.403 -164.718)" fill="#007f83"/><g transform="translate(7.346 741.743)"><path d="M224.376,923.841l.013-.027c-2.72-1.241-2-3.22-4.847-4.434-2.892-1.237-3.707.786-6.6-.459-2.895-1.228-2.088-3.254-4.976-4.494s-3.7.791-6.6-.45a4.72,4.72,0,0,1-.882-.482c-.666-.779-1.351-1.548-1.95-2.381a31.023,31.023,0,0,1-4.087-7.215c-3.05-6.984,6.23-90.8-69.13-91.684-38.349-.448-62.1,29.209-60.723,69.9.423,9.759,4.017,28.094,23.727,40.5-2.206-10.018-7.554-33.346-6.2-40.976,3.563-20.035,22.2-33.3,41.62-29.611a35.379,35.379,0,0,1,21.032,12.726,24.793,24.793,0,0,1,3.445,5.117,37.635,37.635,0,0,1,4.761,16.97c1.311,9.258,1.5,19.391,2.207,28.228.017.122.039.248.053.373a7.36,7.36,0,0,1,2.634-.064,7.991,7.991,0,0,1,3.984,1.942c1.034.839,1.746,1.842,3.322,2.41,3.916.622,4.377-2.115,8.336-1.456.171.031.328.074.483.105l-.042.244c.2.011.369.008.586.039,3.876.653,3.458,3.346,7.323,3.994s4.3-2.059,8.174-1.417,3.448,3.346,7.33,3.989,4.294-2.062,8.166-1.408c3.873.636,3.444,3.339,7.316,3.981s4.3-2.061,8.18-1.414c2.971.5,3.438,2.176,5.229,3.243a3.879,3.879,0,0,0,.227-.432,4.183,4.183,0,0,0-2.117-5.362" transform="translate(-64.537 -812.211)" fill="#155127"/><path d="M241.748,856.574s-7.912-24.964-37.2-25.052c.091-.186,33.127-7.252,37.2,25.052" transform="translate(-134.587 -821.483)" fill="#fff"/><path d="M85.245,953.172a2.445,2.445,0,1,0,2.413-2.629,2.529,2.529,0,0,0-2.413,2.629" transform="translate(-74.898 -881.421)" fill="#43afc0"/><path d="M87.776,971.529a1.767,1.767,0,1,0,3.526-.044,1.818,1.818,0,0,0-1.784-1.86,1.839,1.839,0,0,0-1.742,1.9" transform="translate(-76.164 -890.968)" fill="#43afc0"/><path d="M91.848,987.689a1.529,1.529,0,1,0,1.508-1.639,1.57,1.57,0,0,0-1.508,1.639" transform="translate(-78.201 -899.186)" fill="#43afc0"/></g><g transform="translate(25.215 688.888)"><path d="M122.86,706.491v-.057a.3.3,0,0,1,.021.026.322.322,0,0,0,.02-.027l0,.059c1.144,1.538,25.268,34.528,26.451,84.664,1.011,42.792-11,71.756-11,71.756l-3.971-.241-15.648-.954-3.973-.241s-13.414-30.52-14.423-73.308c-1.187-50.133,21.443-80.28,22.518-81.678" transform="translate(-100.298 -706.433)" fill="#93d1d8"/><path d="M140.477,814.6l-.029,0c-.006,2.094-1.5,2.047-1.454,4.22.047,2.209,1.6,2.3,1.658,4.518s-1.509,2.114-1.456,4.322,1.605,2.305,1.659,4.521-1.508,2.113-1.458,4.324,1.606,2.3,1.657,4.515-1.507,2.115-1.453,4.326,1.608,2.3,1.655,4.514c.035,1.45-.622,1.913-1.065,2.687a4.1,4.1,0,0,0-.666,2.342,5.183,5.183,0,0,0,4.871,4.863,4.22,4.22,0,0,0,4.655-4.276,4.732,4.732,0,0,0-.723-2.349c-.457-.753-1.644-2.314-.765-4.066-.016,0,.016,0,0,0a3.856,3.856,0,0,0,.99-2.6c-.051-2.21-1.6-2.307-1.651-4.523s1.5-2.109,1.448-4.318-1.6-2.307-1.652-4.518,1.5-2.116,1.453-4.322-1.6-2.309-1.655-4.518,1.5-2.113,1.453-4.326-1.6-2.306-1.655-4.509a2.028,2.028,0,0,0,.036-.428,3.184,3.184,0,0,0-2.993-2.994,2.59,2.59,0,0,0-2.86,2.595" transform="translate(-119.658 -759.252)" fill="#fff"/><path d="M152.372,869.465a1.421,1.421,0,0,0,1.383-.763c.088-.181,9.124-18.734,12.574-46.691A172.64,172.64,0,0,0,145.446,715.77a1.69,1.69,0,0,0-2.119-.746,1.386,1.386,0,0,0-.593,1.984,169.676,169.676,0,0,1,20.505,104.4c-3.395,27.51-12.233,45.65-12.318,45.826a1.57,1.57,0,0,0,.775,2.041,1.7,1.7,0,0,0,.675.19" transform="translate(-121.429 -710.665)" fill="#fff"/><path d="M124.654,868.892a1.572,1.572,0,0,0,.673-.111,1.373,1.373,0,0,0,.678-1.944c-.1-.193-9.848-19.552-14.538-47.572-4.324-25.806-5.121-64.465,15.635-102.1a1.555,1.555,0,0,0-.688-2.06,1.506,1.506,0,0,0-2.087.488c-21.157,38.352-20.327,77.724-15.915,104,4.783,28.458,14.725,48.166,14.82,48.362a1.748,1.748,0,0,0,1.422.933" transform="translate(-103.088 -710.663)" fill="#fff"/><path d="M138.807,741.7h0c-.007,2.094-1.535,2.048-1.483,4.222.046,2.209,1.6,2.3,1.655,4.517s-1.509,2.114-1.454,4.323,1.6,2.3,1.656,4.52-1.508,2.113-1.457,4.324,1.608,2.3,1.658,4.516-1.507,2.116-1.455,4.325,1.609,2.3,1.657,4.515c.035,1.45-.622,1.912-1.066,2.685a4.112,4.112,0,0,0-.666,2.342,5.187,5.187,0,0,0,4.873,4.864,4.217,4.217,0,0,0,4.653-4.277,4.726,4.726,0,0,0-.721-2.348c-.459-.754-1.629-2.311-.751-4.064l-.043-.006a3.844,3.844,0,0,0,1.017-2.6c-.049-2.209-1.6-2.307-1.652-4.522s1.5-2.109,1.449-4.319-1.6-2.307-1.65-4.517,1.5-2.118,1.451-4.323-1.6-2.309-1.655-4.518,1.5-2.114,1.454-4.327-1.6-2.306-1.654-4.507a2.308,2.308,0,0,0,.035-.428,3.184,3.184,0,0,0-2.992-2.994,2.588,2.588,0,0,0-2.861,2.595" transform="translate(-118.822 -722.779)" fill="#fff"/></g><g transform="translate(20.265 792.859)"><path d="M120.7,928.666c-13.976-5.733-13.837-12.587-13.738-14.158-.386,2.6-.03,12.662,7.4,17.238,1.975,1.221,11.894,6.627,13.89,9.316a14.3,14.3,0,0,1-2.535,19.619,13.2,13.2,0,0,1-8.819,2.86,8.557,8.557,0,0,1-2.265-.3,26.536,26.536,0,0,1-6.816-2.4,28.287,28.287,0,0,1-8.925-8.076,21.244,21.244,0,0,1-2.958-5.63c-.172.289.02,6.16-.249,6.38-.461.381.474,1.5-.073,1.571a3.126,3.126,0,0,0-1.217.516c-1.166.979,1.81,1.674.625,2.659-.052.04-.106.079-.15.112l-.061-.075a1.351,1.351,0,0,1-.158.16c-1.166.959-1.79.149-2.95,1.111-1,.827-.677,1.541-1.313,2.341l9.912,10.6-.385.384c8.087,6.058,22.417,13.773,36.237-1.621,12.678-14.127,5.763-33.9-15.454-42.6" transform="translate(-90.391 -914.508)" fill="#155127"/><path d="M167.183,1004.353a1.339,1.339,0,0,0-1.923.092,1.441,1.441,0,0,0,.148,1.986,1.325,1.325,0,0,0,1.92-.091,1.439,1.439,0,0,0-.145-1.986" transform="translate(-127.685 -959.278)" fill="#43afc0"/><path d="M173.257,995.524a1.331,1.331,0,0,0-1.923.091,1.435,1.435,0,0,0,.145,1.983,1.33,1.33,0,0,0,1.923-.095,1.437,1.437,0,0,0-.145-1.979" transform="translate(-130.723 -954.859)" fill="#43afc0"/><path d="M176.109,984.731a1.321,1.321,0,0,0-1.917.092,1.426,1.426,0,0,0,.152,1.983,1.328,1.328,0,0,0,1.916-.092,1.438,1.438,0,0,0-.151-1.983" transform="translate(-132.153 -949.458)" fill="#43afc0"/><path d="M174.657,976.178a.918.918,0,0,0-1.324.06.991.991,0,0,0,.1,1.371.916.916,0,0,0,1.323-.062.992.992,0,0,0-.1-1.369" transform="translate(-131.774 -945.237)" fill="#43afc0"/><path d="M171.915,968.622a.918.918,0,0,0-1.327.057,1,1,0,0,0,.1,1.371.915.915,0,0,0,1.328-.065.975.975,0,0,0-.1-1.363" transform="translate(-130.401 -941.454)" fill="#43afc0"/><path d="M167.037,962.015a.925.925,0,0,0-1.33.058,1,1,0,0,0,.1,1.371.917.917,0,0,0,1.328-.058.994.994,0,0,0-.1-1.371" transform="translate(-127.961 -938.15)" fill="#43afc0"/><path d="M162.025,958.333a.668.668,0,0,0-.959.048.71.71,0,0,0,.072.988.66.66,0,0,0,.959-.043.727.727,0,0,0-.072-.993" transform="translate(-125.667 -936.345)" fill="#43afc0"/><path d="M156.809,955.49a.565.565,0,0,0-.829.034.616.616,0,0,0,.058.859.572.572,0,0,0,.83-.041.618.618,0,0,0-.059-.853" transform="translate(-123.132 -934.93)" fill="#43afc0"/><path d="M151.814,952.768a.591.591,0,0,0-.84.037.635.635,0,0,0,.07.861.579.579,0,0,0,.835-.04.629.629,0,0,0-.065-.858" transform="translate(-120.634 -933.572)" fill="#43afc0"/><path d="M147.46,950.887a.37.37,0,0,0-.533.028.4.4,0,0,0,.045.555.365.365,0,0,0,.534-.028.4.4,0,0,0-.046-.555" transform="translate(-118.631 -932.659)" fill="#43afc0"/><path d="M139.19,946.649a.365.365,0,0,0-.533.021.4.4,0,0,0,.039.551.365.365,0,0,0,.537-.021.392.392,0,0,0-.043-.551" transform="translate(-114.494 -930.536)" fill="#43afc0"/><path d="M143.339,948.973a.366.366,0,0,0-.534.02.4.4,0,0,0,.039.552.366.366,0,0,0,.537-.021.392.392,0,0,0-.042-.551" transform="translate(-116.569 -931.699)" fill="#43afc0"/><path d="M134.278,942.835a.368.368,0,0,0-.533.023.4.4,0,0,0,.039.555.378.378,0,0,0,.541-.024.405.405,0,0,0-.047-.554" transform="translate(-112.036 -928.629)" fill="#43afc0"/><path d="M130.631,938.369a.376.376,0,0,0-.537.031.4.4,0,0,0,.04.555.373.373,0,0,0,.54-.031.412.412,0,0,0-.043-.555" transform="translate(-110.209 -926.397)" fill="#43afc0"/><path d="M128.153,933.167a.379.379,0,0,0-.541.023.408.408,0,0,0,.044.555.371.371,0,0,0,.536-.023.4.4,0,0,0-.039-.555" transform="translate(-108.969 -923.792)" fill="#43afc0"/><path d="M150.61,1014.472a1.331,1.331,0,0,0-1.926.089,1.441,1.441,0,0,0,.148,1.978,1.323,1.323,0,0,0,1.926-.088,1.438,1.438,0,0,0-.148-1.978" transform="translate(-119.393 -964.338)" fill="#43afc0"/><path d="M140.435,1015.021a1.656,1.656,0,0,0-2.41.112,1.8,1.8,0,0,0,.183,2.485,1.673,1.673,0,0,0,2.418-.115,1.789,1.789,0,0,0-.191-2.482" transform="translate(-114.016 -964.564)" fill="#43afc0"/><path d="M129.756,1011.65a2.019,2.019,0,0,0-2.912.129,2.18,2.18,0,0,0,.225,3,2.016,2.016,0,0,0,2.911-.132,2.175,2.175,0,0,0-.224-2.993" transform="translate(-108.383 -962.831)" fill="#43afc0"/><path d="M119.52,1006.706a2.014,2.014,0,0,0-2.909.136,2.166,2.166,0,0,0,.224,3,2.012,2.012,0,0,0,2.9-.136,2.172,2.172,0,0,0-.22-3" transform="translate(-103.26 -960.359)" fill="#43afc0"/><path d="M159.146,1010.224a1.334,1.334,0,0,0-1.923.091,1.438,1.438,0,0,0,.148,1.979,1.324,1.324,0,0,0,1.92-.087,1.435,1.435,0,0,0-.145-1.983" transform="translate(-123.665 -962.214)" fill="#43afc0"/></g><path d="M308.25,924.791c-20.59-7.965-24.668-16.456-24.943-19.294a28.028,28.028,0,0,1,0-4.806,32.5,32.5,0,0,1,1.457-6.535c1.548-5.051,1.861-9.7-3.549-14.022s-12.111-1.521-12.5,2.435-.108,6.648-4.236,6.681-7.955-9.632-10.016-14.579-6.726-7.38-13.135-5.637-8.528,10.651-6.7,15.775-.594,7.85-2.09,8.974c-2.876,2.159-5.007,1.53-8.369.348-4.178-1.469-4.121-7.041-9.941-9.063-3.289-1.143-9.608-1.47-13.125,4.789s.786,12.714,3.952,14.652,12.807,5.663,13.057,9.226c.333,4.742-7.867,8.065-7.072,13.159.492,3.154,1.442,8.92,9.654,10.044s13.7-7.7,18.973-8.13c4.231-.345,10.432,3.68,19.876,13.9,12.788,13.835,35.768,10.783,43.567,10.027,13.992-1.356,14.956-1.516,39.757-7.462l10.615-21.582C339.322,933.416,317.233,928.266,308.25,924.791Z" transform="translate(-124.857 -98.616)" fill="#045f29"/><g transform="translate(219.993 735.702)"><path d="M581.482,883.218a26.77,26.77,0,0,1-16.9,6.515,18.647,18.647,0,0,1-4.514-.249A27.557,27.557,0,0,1,548.1,884.83c-5.943-3.278-11.875-7.582-17.3-11.017-.077-.045-.159-.086-.235-.134a5.623,5.623,0,0,1-1.164,1.534,6,6,0,0,1-2.93,1.441,8.039,8.039,0,0,0-2.9.854c-2.141,1.976-.767,3.426-2.948,5.409-.094.088-.186.159-.278.235l-.123-.13c-.1.1-.168.206-.289.316-2.131,1.939-3.5.524-5.628,2.461s-.764,3.359-2.9,5.3-3.5.519-5.634,2.467-.762,3.356-2.894,5.294-3.5.521-5.629,2.46-.763,3.359-2.9,5.3c-1.633,1.486-2.82,1.024-4.244,1.587a2.875,2.875,0,0,0,.146.317,3.068,3.068,0,0,0,4.054,1.116l.015.022c1.952-1.018,2.762.255,4.757-.849,2.031-1.12,1.233-2.464,3.265-3.584s2.829.22,4.855-.9,1.226-2.467,3.26-3.585a3.89,3.89,0,0,1,.676-.3c.755-.039,1.51-.095,2.267-.074a23.233,23.233,0,0,1,6.018.791c5.415,1.293,49.6,43.077,84.338.273C626.43,873.5,609.6,837.766,566.4,824.512c-28.466-8.729-29.307-21.459-29.362-24.391-.337,4.889,2,23.494,17.388,30.982,4.081,1.985,24.5,10.665,28.859,15.379a25.46,25.46,0,0,1-1.806,36.737" transform="translate(-490.103 -800.121)" fill="#0f888e"/><path d="M634.841,1015.1s18.01,6.325,31.366-10.42c.066.134-10.86,22.139-31.366,10.42" transform="translate(-562.518 -902.466)" fill="#fff"/><path d="M684.773,960.667A2.739,2.739,0,0,0,681,961.1a2.578,2.578,0,0,0,.611,3.656,2.733,2.733,0,0,0,3.773-.428,2.585,2.585,0,0,0-.61-3.661" transform="translate(-585.356 -880.167)" fill="#43afc0"/><path d="M695.293,943.451a2.731,2.731,0,0,0-3.77.43,2.585,2.585,0,0,0,.607,3.659,2.738,2.738,0,0,0,3.778-.432,2.581,2.581,0,0,0-.615-3.657" transform="translate(-590.622 -871.552)" fill="#43afc0"/><path d="M699.168,923.033a2.732,2.732,0,0,0-3.773.428,2.578,2.578,0,0,0,.615,3.657,2.738,2.738,0,0,0,3.773-.428,2.579,2.579,0,0,0-.615-3.657" transform="translate(-592.56 -861.335)" fill="#43afc0"/><path d="M694.852,907.43a1.884,1.884,0,0,0-2.6.291,1.784,1.784,0,0,0,.42,2.528,1.887,1.887,0,0,0,2.6-.3,1.78,1.78,0,0,0-.42-2.524" transform="translate(-591.064 -853.615)" fill="#43afc0"/><path d="M688.221,893.777a1.885,1.885,0,0,0-2.6.295,1.787,1.787,0,0,0,.421,2.526,1.891,1.891,0,0,0,2.608-.3,1.775,1.775,0,0,0-.425-2.523" transform="translate(-587.747 -846.785)" fill="#43afc0"/><path d="M677.537,882.194a1.89,1.89,0,0,0-2.6.295,1.786,1.786,0,0,0,.42,2.529,1.891,1.891,0,0,0,2.607-.294,1.788,1.788,0,0,0-.423-2.53" transform="translate(-582.4 -840.99)" fill="#43afc0"/><path d="M656.274,871.531a1.177,1.177,0,0,0-1.634.183,1.113,1.113,0,0,0,.264,1.583,1.178,1.178,0,0,0,1.634-.187,1.119,1.119,0,0,0-.264-1.579" transform="translate(-572.312 -835.726)" fill="#43afc0"/><path d="M646,867.168a1.185,1.185,0,0,0-1.638.184,1.12,1.12,0,0,0,.268,1.584,1.19,1.19,0,0,0,1.635-.186,1.12,1.12,0,0,0-.265-1.581" transform="translate(-567.17 -833.543)" fill="#43afc0"/><path d="M637.1,864.3a.765.765,0,0,0-1.054.117.714.714,0,0,0,.171,1.022.754.754,0,0,0,1.055-.12.721.721,0,0,0-.172-1.019" transform="translate(-563.048 -832.155)" fill="#43afc0"/><path d="M629.819,861.564a.758.758,0,0,0-1.052.121.715.715,0,0,0,.172,1.02.765.765,0,0,0,1.055-.117.727.727,0,0,0-.174-1.024" transform="translate(-559.408 -830.784)" fill="#43afc0"/><path d="M620.109,857.564a.758.758,0,0,0-1.05.112.72.72,0,0,0,.171,1.027.762.762,0,0,0,1.051-.121.718.718,0,0,0-.172-1.019" transform="translate(-554.549 -828.781)" fill="#43afc0"/><path d="M609.812,851.162a.761.761,0,0,0-1.051.117.712.712,0,0,0,.168,1.018.764.764,0,0,0,1.058-.116.721.721,0,0,0-.175-1.02" transform="translate(-549.397 -825.579)" fill="#43afc0"/><path d="M601.9,843.379a.756.756,0,0,0-1.051.121.714.714,0,0,0,.172,1.019.758.758,0,0,0,1.054-.12.719.719,0,0,0-.175-1.019" transform="translate(-545.44 -821.685)" fill="#43afc0"/><path d="M596.177,834.058a.768.768,0,0,0-1.056.12.722.722,0,0,0,.175,1.021.77.77,0,0,0,1.055-.117.724.724,0,0,0-.174-1.023" transform="translate(-542.575 -817.022)" fill="#43afc0"/><path d="M653.761,981.7a2.735,2.735,0,0,0-3.776.427,2.581,2.581,0,0,0,.615,3.657,2.726,2.726,0,0,0,3.773-.428,2.582,2.582,0,0,0-.611-3.656" transform="translate(-569.84 -890.685)" fill="#43afc0"/><path d="M633.867,984.056a3.421,3.421,0,0,0-4.734.538,3.232,3.232,0,0,0,.77,4.589,3.429,3.429,0,0,0,4.74-.538,3.224,3.224,0,0,0-.775-4.589" transform="translate(-559.341 -891.793)" fill="#43afc0"/><path d="M612.33,979.207a4.137,4.137,0,0,0-5.7.64,3.9,3.9,0,0,0,.929,5.532,4.135,4.135,0,0,0,5.706-.652,3.892,3.892,0,0,0-.93-5.52" transform="translate(-548.015 -889.297)" fill="#43afc0"/><path d="M669.886,972.651a2.742,2.742,0,0,0-3.778.431,2.577,2.577,0,0,0,.616,3.654,2.726,2.726,0,0,0,3.772-.425,2.583,2.583,0,0,0-.61-3.66" transform="translate(-577.908 -886.162)" fill="#43afc0"/><path d="M667.026,876.083a1.372,1.372,0,0,0-1.882.211,1.291,1.291,0,0,0,.307,1.83,1.359,1.359,0,0,0,1.883-.215,1.3,1.3,0,0,0-.308-1.826" transform="translate(-577.552 -837.987)" fill="#43afc0"/></g><path d="M227.664,1066.914c29.594-58.277,97.246-45.859,120.656-37.741L336.31,1055a.041.041,0,0,0-.03-.01l-9.935,21.347a6.8,6.8,0,0,1-9.206,3.338,7.233,7.233,0,0,1-3.238-9.516l3.284-7.365a7.244,7.244,0,0,0-3.238-9.515,6.806,6.806,0,0,0-9.211,3.343l-9.141,19.633a6.72,6.72,0,0,1-8.776,2.735,7.125,7.125,0,0,1-3.49-8.475l1.324-3.093a7.244,7.244,0,0,0-3.235-9.518,6.818,6.818,0,0,0-9.222,3.345l-4.969,10.682-3.817,8.205a6.8,6.8,0,0,1-9.21,3.329,7.235,7.235,0,0,1-3.24-9.513l.284-.6.7-1.5a7.249,7.249,0,0,0-3.235-9.521,6.818,6.818,0,0,0-9.216,3.35l-1.326,2.845c-.013,0-.032.005-.054.005-1.049,3.08-.93,4.942-.668,5.948a7.853,7.853,0,0,1,.1,6.63,7.381,7.381,0,0,1-9.983,3.606,7.808,7.808,0,0,1-3.574-10.034s3.57-7.577,3.675-7.764" transform="translate(-136.654 -175.511)" fill="#007f83"/><g transform="translate(193.478 804.263)"><path d="M666.229,958.743c-.012-.014-.065-.063-.137-.126-.072-.1-.113-.157-.113-.157Z" transform="translate(-551.583 -947.903)" fill="#045f29"/><path d="M439.452,1022.517c-2.24-3.67-3.441-12.094-1.267-19.672s6.853-19.393,20.675-33.65,26.916-21.814,50.417-29.7c22.544-7.567,40.576,7.051,42.272,8.553.8,1.1,5.887,7.794,10.007,6.865,4.488-1.012,18.373,1.9,15.777,11.737s-17.135,7.1-20.479,1.04l-3.344-6.057a4.213,4.213,0,0,0-2.271-2.565c-1.873-.9-3.974-.384-3.727,1.415s-.945.557-.945.557-3.273-1.634-4.65-.654-1.253,4.263-.627,7.727,2.394,5.806.986,6.718-4.522-2.426-6.69-3.662-3.549-2.132-4.543-1.581-1.657,4.913-1.425,7.183-.7,4.378-2.466,4.792-3.181-1.261-4.111-3.329l-1.16-2.561c-1.383-3.19-2.906-5.019-4.817-8.689-2.135-4.1-3.6-5.287-4.618-5.063s1.98,6.187,3.61,11.069,2.447,6.716.445,7.951-3.122-3.831-4.68-7.566-5.085-10.3-6.911-9.628-1.392,1.771.913,8.479,2.778,13.018.535,13.524-2.892-1.746-4.349-5.975-5.7-13.124-8.555-11.941-.369,4.9,1.413,9.651,4.227,12.677,1.472,13.366-3.365-1.6-3.365-1.6a63.574,63.574,0,0,0-2.538-9.326c-2-5.9-3.047-8.608-5.885-7.71s-2.464,3.259-2.464,3.259c-.159.847,2.548,6.525,3.473,11.561s.08,7.5-1.781,7.735a2.172,2.172,0,0,1-2.314-1.72s-3.5-17.157-5.4-16.791-1.389,2.593-1.389,2.593,1.226,11.987,1.627,15.518.873,6.344-1.9,6.63S471.646,998,471.646,998s-1.048-10.076-1.5-13.261-.726-6.121-3.382-5.586-1.845,3.5-1.845,3.5l1.161,11.287c1.188,8.716,3.135,18.357-.215,18.966-2.947.536-3.068-3.693-3.068-3.693s-.364-5.028-1.068-9.3-1.258-6.608-3.657-5.9-1.5,3.55-1.5,3.55.222,2.075,1.212,10.888,2.3,13.961-.8,14.558-2.933-4.6-2.933-4.6-1.466-14.651-1.916-15.464-1.01-1.6-2.09-1.447-4.289.1-1.859,9.452-1.431,12.977-2.11,13.578A4.8,4.8,0,0,1,439.452,1022.517Z" transform="translate(-437.04 -937.331)" fill="#045f29"/></g><g transform="translate(693.504 777.516)"><path d="M1568,931.442a35.651,35.651,0,0,0-24.9-1.554,24.9,24.9,0,0,0-5.811,2.293,37.994,37.994,0,0,0-13.721,11.494c-6.4,7.025-12.371,15.44-18.04,22.456-.076.094-.169.183-.248.28a7.854,7.854,0,0,0-2.169-1.583,8.018,8.018,0,0,0-4.448-.691c-1.347.1-2.516.526-4.165.095-3.639-1.762-2.449-4.328-6.139-6.083-.162-.078-.312-.135-.466-.2l-.106.224c-.172-.1-.308-.2-.509-.3-3.613-1.718-4.81.8-8.418-.915s-2.409-4.234-6.022-5.952-4.807.8-8.42-.916-2.412-4.236-6.022-5.952-4.805.8-8.412-.912-2.412-4.236-6.027-5.955c-2.767-1.316-4.131-.176-6.234-.328a4.093,4.093,0,0,1,4.9-3.759l.009-.038c2.987.539,3.51-1.54,6.591-.9,3.132.647,2.653,2.819,5.787,3.467s3.613-1.526,6.742-.88,2.646,2.821,5.781,3.467a5.535,5.535,0,0,0,1.01.115c1.01-.274,2.023-.523,3.007-.878a31.227,31.227,0,0,0,7.55-3.676c6.552-4.092,46.871-80,110.41-36.812,41.477,28.188,34.466,84.045-16.567,120.729-33.628,24.172-29.374,41.839-28.21,45.853-2.5-6.5-7.266-32.806,9.743-49.635,4.515-4.467,27.626-25.088,31.348-33.38,8.509-18.941.531-40.955-17.832-49.172" transform="translate(-1437.732 -883.804)" fill="#155127"/><path d="M1623.581,904.33s20.941-16.377,45.495.615c.03-.2-23.553-25.4-45.495-.615" transform="translate(-1530.716 -888.618)" fill="#fff"/><path d="M1751.1,1044.037a2.534,2.534,0,0,1-3.536.728,2.606,2.606,0,0,1-.511-3.619,2.543,2.543,0,0,1,3.54-.723,2.6,2.6,0,0,1,.508,3.613" transform="translate(-1592.239 -961.946)" fill="#43afc0"/><path d="M1748.158,1065.466a2.533,2.533,0,0,1-3.536.721,2.6,2.6,0,0,1-.508-3.613,2.533,2.533,0,0,1,3.537-.724,2.6,2.6,0,0,1,.507,3.616" transform="translate(-1590.768 -972.665)" fill="#43afc0"/><path d="M1739.029,1085.826a2.542,2.542,0,0,1-3.537.724,2.611,2.611,0,0,1-.511-3.619,2.543,2.543,0,0,1,3.539-.726,2.607,2.607,0,0,1,.509,3.621" transform="translate(-1586.2 -982.85)" fill="#43afc0"/><path d="M1728.063,1100.3a1.847,1.847,0,0,1-2.559.527,1.891,1.891,0,0,1-.367-2.618,1.831,1.831,0,0,1,2.559-.522,1.885,1.885,0,0,1,.367,2.613" transform="translate(-1581.344 -990.657)" fill="#43afc0"/><path d="M1704.335,1122.075a1.589,1.589,0,0,1-2.224.454,1.632,1.632,0,0,1-.316-2.266,1.594,1.594,0,0,1,2.219-.452,1.633,1.633,0,0,1,.321,2.264" transform="translate(-1569.69 -1001.746)" fill="#43afc0"/></g><rect width="44.049" height="119.077" transform="translate(812.58 825.62) rotate(90)" fill="#39a935"/><g transform="translate(765.229 838.769)"><path d="M1745.939,1078.763c1.493-4.543.654-13.971-3.625-21.625s-12.347-19.259-30.937-31.187-34.689-16.785-62.141-19.356c-26.336-2.468-42.148,17.943-43.6,20-.592,1.4-4.4,9.936-9.093,9.976-5.116.043-19.412,6.726-14.1,16.718s20.358,3.332,22.441-4.076l2.083-7.408a4.685,4.685,0,0,1,1.808-3.355c1.8-1.449,4.206-1.426,4.395.586s1.166.363,1.166.363,3.129-2.6,4.869-1.889,2.44,4.3,2.642,8.208-1.118,6.9.639,7.526,4.28-3.776,6.313-5.664,3.3-3.21,4.518-2.866,3.043,4.9,3.368,7.417,1.868,4.564,3.888,4.563,3.125-2.173,3.607-4.649l.606-3.068c.687-3.805,1.872-6.173,3.009-10.633,1.27-4.983,2.561-6.641,3.714-6.656s-.572,7.2-1.1,12.9-.944,7.894,1.538,8.723,2.408-4.941,3.146-9.381,2.889-12.448,5.037-12.182,1.958,1.565,1.165,9.413.3,14.8,2.857,14.781,2.688-2.625,3.191-7.575,2.837-15.659,6.23-15.1,1.646,5.216.922,10.81-1.356,14.8,1.8,14.848,3.238-2.584,3.238-2.584a70.738,70.738,0,0,1,.379-10.745c.663-6.9,1.112-10.1,4.414-9.844s3.5,2.9,3.5,2.9c.387.877-1.1,7.714-.825,13.4s1.819,8.142,3.894,7.924a2.416,2.416,0,0,0,2.068-2.45s-.569-19.468,1.578-19.553,2.163,2.455,2.163,2.455,1.717,13.292,2.18,17.217.667,7.091,3.744,6.7,2.228-3.956,2.228-3.956-1.425-11.177-1.748-14.741-.769-6.812,2.243-6.908,2.888,3.323,2.888,3.323l1.609,12.517c.927,9.741,1.269,20.675,5.051,20.483,3.327-.168,2.384-4.778,2.384-4.778s-.883-5.537-1.206-10.342-.316-7.476,2.462-7.315,2.526,3.463,2.526,3.463.287,2.3,1.453,12.1,1.054,15.7,4.569,15.561,2.006-5.73,2.006-5.73-2.135-16.238-1.854-17.233.688-1.985,1.895-2.1,4.669-.985,4.415,9.764,4.846,13.688,5.733,14.167S1744.446,1083.306,1745.939,1078.763Z" transform="translate(-1581.275 -1006.389)" fill="#045f29"/><path d="M1629.79,1046.8c.01-.019.055-.084.117-.172.053-.124.083-.2.083-.2Z" transform="translate(-1605.548 -1026.423)" fill="#045f29"/></g><rect width="44.049" height="98.1" transform="translate(736.337 764.583)" fill="#39a935"/><path d="M1644.11,1090.1c-29.594-58.276-97.246-45.859-120.656-37.741l12.011,25.824a.038.038,0,0,1,.029-.01l9.935,21.347a6.8,6.8,0,0,0,9.206,3.338,7.232,7.232,0,0,0,3.238-9.516l-3.285-7.365a7.244,7.244,0,0,1,3.238-9.515,6.807,6.807,0,0,1,9.211,3.343l9.141,19.633a6.72,6.72,0,0,0,8.775,2.735,7.125,7.125,0,0,0,3.49-8.475l-1.324-3.093a7.245,7.245,0,0,1,3.236-9.518,6.818,6.818,0,0,1,9.221,3.345l4.969,10.682,3.817,8.206a6.8,6.8,0,0,0,9.21,3.328,7.236,7.236,0,0,0,3.24-9.513l-.284-.6-.7-1.5a7.248,7.248,0,0,1,3.234-9.52,6.817,6.817,0,0,1,9.215,3.35l1.326,2.846c.012,0,.032,0,.055,0,1.048,3.08.93,4.942.668,5.948a7.851,7.851,0,0,0-.1,6.63,7.382,7.382,0,0,0,9.983,3.606,7.808,7.808,0,0,0,3.573-10.034s-3.57-7.577-3.675-7.763" transform="translate(-787.117 -187.112)" fill="#007f83"/><path d="M1437.335,970.31c-57.714-32.625-108.346,17.416-123.735,38l24.624,15.09c.014-.006.024-.016.03-.017l20.364,12.48a6.932,6.932,0,0,0,9.7-2.512,7.483,7.483,0,0,0-2.558-10.025l-2.332-1.433.13-.07-4.7-2.887a7.488,7.488,0,0,1-2.558-10.026,6.927,6.927,0,0,1,9.7-2.511l18.739,11.475a6.849,6.849,0,0,0,8.993-2.769,7.407,7.407,0,0,0-1.762-9.288l-2.85-1.876a7.491,7.491,0,0,1-2.559-10.028,6.934,6.934,0,0,1,9.707-2.508l10.193,6.244,7.822,4.794a6.936,6.936,0,0,0,9.7-2.51,7.492,7.492,0,0,0-2.557-10.03l-2.011-1.228a7.491,7.491,0,0,1-2.559-10.03,6.935,6.935,0,0,1,9.708-2.509s2.747,1.655,2.764,1.64c2.619,2.025,3.557,3.686,3.892,4.7a7.951,7.951,0,0,0,3.615,5.727,7.509,7.509,0,0,0,10.51-2.723,8.087,8.087,0,0,0-2.561-10.672s-7.28-4.415-7.455-4.5" transform="translate(-682.123 -144.185)" fill="#155127"/><g transform="translate(553.063 861.264)"><path d="M1310.584,1145.879c2.479-4.089,3.787-13.464,1.344-21.885s-7.688-21.547-23.109-37.359-30.011-24.173-56.177-32.868c-25.1-8.342-45.109,7.979-46.99,9.655-.891,1.229-6.522,8.689-11.108,7.669-4.995-1.111-20.429,2.177-17.509,13.108s19.082,7.836,22.781,1.088l3.7-6.748a4.687,4.687,0,0,1,2.518-2.861c2.08-1.006,4.419-.441,4.15,1.562s1.053.617,1.053.617,3.636-1.829,5.17-.743,1.407,4.738.723,8.593-2.644,6.465-1.074,7.476,5.021-2.713,7.428-4.1,3.94-2.382,5.047-1.773,1.86,5.458,1.609,7.985.79,4.867,2.759,5.321,3.534-1.413,4.562-3.716l1.282-2.852c1.528-3.552,3.216-5.592,5.329-9.681,2.361-4.568,3.991-5.893,5.119-5.647s-2.181,6.889-3.979,12.324-2.7,7.478-.468,8.845,3.46-4.271,5.18-8.43,5.621-11.477,7.654-10.733,1.555,1.966-.987,9.434-3.047,14.489-.55,15.044,3.211-1.952,4.817-6.66,6.294-14.616,9.475-13.31.427,5.453-1.539,10.74-4.659,14.115-1.593,14.873,3.738-1.787,3.738-1.787a70.715,70.715,0,0,1,2.793-10.383c2.2-6.573,3.359-9.585,6.52-8.595S1263,1093.7,1263,1093.7c.179.941-2.812,7.266-3.825,12.87s-.063,8.343,2.008,8.6a2.415,2.415,0,0,0,2.568-1.921s3.835-19.1,5.945-18.694,1.553,2.879,1.553,2.879-1.323,13.336-1.758,17.265-.949,7.059,2.138,7.368,3.062-3.352,3.062-3.352,1.132-11.21,1.62-14.755.786-6.81,3.742-6.224,2.065,3.888,2.065,3.888l-1.254,12.558c-1.293,9.7-3.425,20.428.3,21.094,3.279.586,3.4-4.118,3.4-4.118s.388-5.593,1.157-10.348,1.378-7.354,4.048-6.571,1.681,3.943,1.681,3.943-.24,2.308-1.312,12.115-2.513,15.536.943,16.19,3.246-5.131,3.246-5.131,1.581-16.3,2.079-17.207,1.118-1.778,2.319-1.617,4.771.093,2.1,10.508,1.635,14.428,2.392,15.095S1308.105,1149.968,1310.584,1145.879Z" transform="translate(-1156.671 -1051.406)" fill="#045f29"/><path d="M1214.365,1075.417c.014-.016.073-.07.153-.141.079-.109.125-.174.125-.174Z" transform="translate(-1185.537 -1063.262)" fill="#045f29"/></g><path d="M1254.837,1086.557c-29.594-58.277-97.246-45.859-120.656-37.741l12.011,25.824a.039.039,0,0,1,.029-.01l9.935,21.347a6.8,6.8,0,0,0,9.206,3.338,7.232,7.232,0,0,0,3.238-9.516l-3.284-7.365a7.244,7.244,0,0,1,3.238-9.515,6.807,6.807,0,0,1,9.211,3.343l9.141,19.634a6.72,6.72,0,0,0,8.775,2.735,7.125,7.125,0,0,0,3.49-8.475l-1.324-3.093a7.245,7.245,0,0,1,3.236-9.518,6.818,6.818,0,0,1,9.221,3.345l4.969,10.682,3.817,8.206a6.8,6.8,0,0,0,9.21,3.328,7.236,7.236,0,0,0,3.24-9.513l-.284-.6-.7-1.5a7.247,7.247,0,0,1,3.234-9.521,6.817,6.817,0,0,1,9.215,3.35l1.326,2.846c.012,0,.032,0,.055,0,1.048,3.08.93,4.942.668,5.948a7.852,7.852,0,0,0-.1,6.63,7.382,7.382,0,0,0,9.983,3.606,7.808,7.808,0,0,0,3.573-10.034s-3.57-7.577-3.675-7.763" transform="translate(-592.356 -185.339)" fill="#007f83"/><path d="M1497.6,1061.658c0,19.7-15.467,35.67-34.547,35.67s-34.547-15.969-34.547-35.67,15.466-35.672,34.547-35.672,34.547,15.971,34.547,35.672" transform="translate(-739.612 -177.424)" fill="#007f83"/><g transform="translate(444.202 810.199)"><path d="M1046.5,1053.059a30.658,30.658,0,0,0-4.049-20.36,21.266,21.266,0,0,0-3.008-4.22,31.523,31.523,0,0,0-11.835-8.731c-6.814-3.748-14.616-6.855-21.268-10.007-.09-.042-.179-.1-.273-.143a6.454,6.454,0,0,0,.774-2.066,6.9,6.9,0,0,0-.4-3.721,9.273,9.273,0,0,1-.956-3.333c.605-3.284,2.85-2.842,3.436-6.169.026-.145.039-.277.053-.415l-.2-.038c.039-.162.093-.289.126-.472.573-3.256-1.638-3.715-1.066-6.962s2.785-2.8,3.357-6.047-1.64-3.71-1.065-6.968,2.784-2.793,3.356-6.048-1.64-3.7-1.067-6.956,2.784-2.8,3.357-6.053c.438-2.49-.736-3.358-1.062-5.084a3.961,3.961,0,0,1,.4-.052,3.512,3.512,0,0,1,3.563,3.242l.031,0c.211,2.512,1.938,2.515,2.094,5.125.157,2.651-1.631,2.7-1.475,5.357s1.951,2.6,2.11,5.252-1.636,2.7-1.475,5.353a4.735,4.735,0,0,0,.122.839c.426.756.834,1.521,1.317,2.243a26.663,26.663,0,0,0,4.453,5.34c4.567,4.451,72.1,21.635,51.936,81.5-13.158,39.074-58.069,44.673-97.367,10.964-25.895-22.214-38.735-15.23-41.609-13.486,4.527-3.323,23.973-12.456,40.651-2.148,4.425,2.737,25.34,17.2,32.573,18.523a29.175,29.175,0,0,0,34.467-24.257" transform="translate(-938.808 -949.212)" fill="#155127"/><path d="M1188.2,1083.894s17.156,13.567,9.129,36.757c.165-.019,14.778-24.082-9.129-36.757" transform="translate(-1063.583 -1016.596)" fill="#fff"/><path d="M1157.082,1170a3.132,3.132,0,0,1-1.894-3.918,2.954,2.954,0,0,1,3.913-1.646,3.133,3.133,0,0,1,1.9,3.917,2.957,2.957,0,0,1-3.917,1.647" transform="translate(-1046.981 -1056.78)" fill="#43afc0"/><path d="M1146.857,1190.731a3.131,3.131,0,0,1-1.9-3.913,2.959,2.959,0,0,1,3.916-1.653,3.138,3.138,0,0,1,1.9,3.92,2.96,2.96,0,0,1-3.916,1.646" transform="translate(-1041.864 -1067.153)" fill="#43afc0"/><path d="M1129.46,1207a3.131,3.131,0,0,1-1.9-3.916,2.955,2.955,0,0,1,3.916-1.649,3.138,3.138,0,0,1,1.9,3.917,2.954,2.954,0,0,1-3.916,1.647" transform="translate(-1033.161 -1075.293)" fill="#43afc0"/><path d="M1111.364,1212.99a2.16,2.16,0,0,1-1.313-2.7,2.042,2.042,0,0,1,2.706-1.14,2.165,2.165,0,0,1,1.31,2.7,2.04,2.04,0,0,1-2.7,1.138" transform="translate(-1024.425 -1079.187)" fill="#43afc0"/><path d="M1094.083,1214.932a2.159,2.159,0,0,1-1.308-2.7,2.043,2.043,0,0,1,2.7-1.138,2.164,2.164,0,0,1,1.31,2.707,2.034,2.034,0,0,1-2.7,1.132" transform="translate(-1015.781 -1080.16)" fill="#43afc0"/><path d="M1076.321,1211.683a2.166,2.166,0,0,1-1.31-2.7,2.048,2.048,0,0,1,2.707-1.142,2.165,2.165,0,0,1,1.31,2.7,2.045,2.045,0,0,1-2.708,1.14" transform="translate(-1006.895 -1078.532)" fill="#43afc0"/><path d="M1063.754,1205.634a1.573,1.573,0,0,1-.95-1.954,1.476,1.476,0,0,1,1.957-.823,1.555,1.555,0,0,1,.947,1.954,1.48,1.48,0,0,1-1.954.823" transform="translate(-1000.804 -1076.059)" fill="#43afc0"/><path d="M1052.687,1198.141a1.35,1.35,0,0,1-.824-1.692,1.275,1.275,0,0,1,1.694-.713,1.35,1.35,0,0,1,.823,1.694,1.281,1.281,0,0,1-1.693.711" transform="translate(-995.335 -1072.504)" fill="#43afc0"/><path d="M1042.165,1190.865a1.356,1.356,0,0,1-.822-1.7,1.279,1.279,0,0,1,1.7-.711,1.36,1.36,0,0,1,.819,1.7,1.283,1.283,0,0,1-1.693.715" transform="translate(-990.07 -1068.861)" fill="#43afc0"/><path d="M1033.773,1184.308a.878.878,0,0,1-.533-1.094.818.818,0,0,1,1.094-.459.865.865,0,0,1,.531,1.092.827.827,0,0,1-1.092.461" transform="translate(-986.031 -1066.026)" fill="#43afc0"/><path d="M1026.658,1178.936a.873.873,0,0,1-.527-1.1.819.819,0,0,1,1.092-.458.878.878,0,0,1,.534,1.092.83.83,0,0,1-1.1.461" transform="translate(-982.473 -1063.339)" fill="#43afc0"/><path d="M1016.836,1171.988a.87.87,0,0,1-.534-1.088.825.825,0,0,1,1.1-.462.872.872,0,0,1,.53,1.092.823.823,0,0,1-1.093.459" transform="translate(-977.557 -1059.864)" fill="#43afc0"/><path d="M1004.325,1165.939a.867.867,0,0,1-.528-1.087.817.817,0,0,1,1.089-.462.875.875,0,0,1,.534,1.095.827.827,0,0,1-1.1.454" transform="translate(-971.299 -1056.838)" fill="#43afc0"/><path d="M991.944,1163.047a.867.867,0,0,1-.524-1.092.824.824,0,0,1,1.091-.46.871.871,0,0,1,.53,1.1.829.829,0,0,1-1.1.457" transform="translate(-965.106 -1055.39)" fill="#43afc0"/><path d="M979.415,1163.218a.879.879,0,0,1-.529-1.1.823.823,0,0,1,1.092-.455.879.879,0,0,1,.534,1.092.83.83,0,0,1-1.1.46" transform="translate(-958.837 -1055.475)" fill="#43afc0"/><path d="M1158.443,1127.089a3.138,3.138,0,0,1-1.9-3.918,2.956,2.956,0,0,1,3.918-1.645,3.124,3.124,0,0,1,1.9,3.912,2.956,2.956,0,0,1-3.914,1.651" transform="translate(-1047.66 -1035.312)" fill="#43afc0"/><path d="M1148.82,1105.871a3.924,3.924,0,0,1-2.381-4.917,3.7,3.7,0,0,1,4.915-2.065,3.926,3.926,0,0,1,2.385,4.917,3.7,3.7,0,0,1-4.919,2.064" transform="translate(-1042.582 -1023.957)" fill="#43afc0"/><path d="M1159.564,1148.244a3.141,3.141,0,0,1-1.9-3.921,2.953,2.953,0,0,1,3.915-1.642,3.122,3.122,0,0,1,1.9,3.911,2.955,2.955,0,0,1-3.915,1.652" transform="translate(-1048.222 -1045.896)" fill="#43afc0"/></g><path d="M999.076,1011.873c-40.067-12.953-60.837-4.139-60.837-4.139s-5.052,78.095,30.932,59.6c9.746-5.009,9.8-32.437,6.617-31.973-.217-2.376,1.266-4.462,3.3-4.664a4.006,4.006,0,0,1,4.09,3.92l2.543,28.092c.007.007.013,0,.013.006l.557,6.156a3.707,3.707,0,1,0,7.391-.107l-2-22.068c-.215-2.367,1.268-4.457,3.307-4.667a4.008,4.008,0,0,1,4.087,3.922l1.8,19.869c0,.008.018.007.014.015l1.759,19.464c.22,2.372,2.048,4.126,4.086,3.92a3.971,3.971,0,0,0,3.306-4.041l-2.005-22.205a4.075,4.075,0,0,1,3.306-4.656c2.038-.213,3.867,1.542,4.077,3.912l2.4,26.493c.024.016.046.031.064.046l.794,8.713c.292,3.268,2.809,5.685,5.63,5.4s4.86-3.163,4.562-6.422l-.247-2.715a3.771,3.771,0,0,1-.1-.585l-2.722-30.039c-.219-2.366,1.264-4.454,3.306-4.656s3.867,1.553,4.084,3.919l3.258,34.078c.222,2.366,2.044,4.124,4.092,3.91,2.033-.2,3.521-2.288,3.307-4.656l-2.7-30.095a4.089,4.089,0,0,1,3.31-4.655c2.04-.206,3.869,1.545,4.081,3.921l4.708,49.688c.222,2.367,2.048,4.126,4.086,3.922a4.093,4.093,0,0,0,3.306-4.658l-2.21-25.349c-.217-2.368,1.264-4.458,3.306-4.663a4,4,0,0,1,4.081,3.928l3.71,41.557c.209,2.375,2.042,4.132,4.083,3.92s3.526-2.3,3.311-4.656l-1.1-12.169c.006-.008.012-.011.032-.013l-1.588-17.477c-.212-2.359,1.264-4.458,3.306-4.656s3.868,1.544,4.087,3.919l1.655,18.283c.914,10.145,4.023,14.755,7.566,16.007,5.474,1.6,9.316-2.279,9.955-12.011.634-29.844-33.624-86.566-101.767-108.583" transform="translate(-494.2 -166.827)" fill="#39a935"/><path d="M1468.876,1056.5c-38.143-17.839-59.849-11.679-59.849-11.679s-14.732,76.859,23.275,62.985c10.293-3.758,13.76-30.965,10.544-30.9.081-2.385,1.811-4.269,3.858-4.217a4.005,4.005,0,0,1,3.57,4.4l-.973,28.19c.006.008.013,0,.012.008l-.213,6.177a3.707,3.707,0,1,0,7.346.814l.765-22.145c.081-2.375,1.813-4.264,3.862-4.219a4.008,4.008,0,0,1,3.568,4.4l-.689,19.939c0,.009.016.01.012.017l-.677,19.531c-.077,2.381,1.519,4.349,3.567,4.4a3.972,3.972,0,0,0,3.784-3.6l.774-22.282a4.075,4.075,0,0,1,3.861-4.208c2.049.042,3.645,2.011,3.558,4.389l-.912,26.586c.022.02.042.036.058.053l-.3,8.744c-.117,3.28,2.079,5.991,4.914,6.057s5.216-2.533,5.325-5.8l.092-2.725a3.787,3.787,0,0,1-.029-.593l1.038-30.144c.077-2.375,1.809-4.262,3.86-4.208s3.644,2.022,3.565,4.4l-1.008,34.218c-.074,2.375,1.515,4.346,3.574,4.389,2.041.057,3.778-1.832,3.86-4.208l1.068-30.2a4.089,4.089,0,0,1,3.864-4.207c2.049.05,3.646,2.015,3.561,4.4l-1.512,49.888c-.074,2.376,1.518,4.349,3.566,4.4a4.094,4.094,0,0,0,3.86-4.211l.963-25.427c.079-2.376,1.809-4.266,3.861-4.215a4,4,0,0,1,3.561,4.4l-1.491,41.7c-.088,2.382,1.512,4.354,3.563,4.4s3.785-1.84,3.864-4.208l.423-12.211c.006-.007.013-.01.033-.009l.6-17.539c.083-2.367,1.809-4.266,3.86-4.208s3.645,2.014,3.568,4.4l-.632,18.348c-.355,10.18,2.155,15.142,5.515,16.824,5.232,2.273,9.527-1.1,11.373-10.678,4.343-29.533-22.589-90.077-87.463-120.4" transform="translate(-728.461 -186.334)" fill="#39a935"/><g transform="translate(797.733 790.596)"><path d="M1693.674,909.979c41.477,28.188,34.465,84.045-16.568,120.728-33.628,24.173-29.374,41.84-28.21,45.854-2.5-6.5-7.266-32.807,9.743-49.635,4.515-4.467,27.626-25.088,31.348-33.38,8.509-18.942.532-40.955-17.831-49.172" transform="translate(-1646.324 -909.979)" fill="#155127"/><path d="M1698.02,978.812" transform="translate(-1672.189 -944.418)" fill="#155127"/><path d="M1750.676,1043.708a2.533,2.533,0,0,1-3.536.728,2.6,2.6,0,0,1-.512-3.618,2.544,2.544,0,0,1,3.54-.723,2.6,2.6,0,0,1,.508,3.614" transform="translate(-1696.256 -974.86)" fill="#43afc0"/><path d="M1747.735,1065.136a2.533,2.533,0,0,1-3.536.721,2.6,2.6,0,0,1-.507-3.614,2.532,2.532,0,0,1,3.537-.723,2.6,2.6,0,0,1,.506,3.616" transform="translate(-1694.786 -985.579)" fill="#43afc0"/><path d="M1738.606,1085.5a2.542,2.542,0,0,1-3.537.724,2.612,2.612,0,0,1-.511-3.619,2.543,2.543,0,0,1,3.539-.726,2.607,2.607,0,0,1,.509,3.621" transform="translate(-1690.218 -995.765)" fill="#43afc0"/><path d="M1727.64,1099.976a1.846,1.846,0,0,1-2.558.527,1.892,1.892,0,0,1-.368-2.618,1.831,1.831,0,0,1,2.56-.522,1.885,1.885,0,0,1,.367,2.613" transform="translate(-1685.362 -1003.572)" fill="#43afc0"/><path d="M1703.912,1121.746a1.59,1.59,0,0,1-2.224.454,1.634,1.634,0,0,1-.316-2.266,1.6,1.6,0,0,1,2.219-.452,1.633,1.633,0,0,1,.321,2.264" transform="translate(-1673.708 -1014.661)" fill="#43afc0"/></g><path d="M1622.038,960.517c-1.721-1.466-4.752-.333-6.825-1.508-2.815-1.6,2.884-5.7-1.99-7.94s-6.117,6.116-8.65,5.323-3.207-8.5-7.059-7.743.1,9.668-2.645,10.772-4.1-5-8.42-4.008c-2.413.556-9.987,6.165-.725,10.425,3.654,1.68,8.835,1.7,9.007,8.173s8.75,4.346,6.841,1.428,2.932-5.862,5.277-.311c.034.081.073.152.109.228.015.029.028.059.043.089a3.076,3.076,0,0,0,1.621,1.611,3.727,3.727,0,0,0,.6.259,3.77,3.77,0,0,0,4.726-2.61,4,4,0,0,0-.359-3.095,2.611,2.611,0,0,0-.657-.874c-3.3-2.912,1.264-6.513,3.667-4.69a8.964,8.964,0,0,0,2.084,1.065V967.1c.055.018.1.049.155.066a3.635,3.635,0,0,0,4.555-2.515,3.827,3.827,0,0,0-1.359-4.136" transform="translate(-816.029 -138.705)" fill="#39a935"/><path d="M872.221,1002.248c-2.3-1.959-6.353-.445-9.124-2.015-3.764-2.133,3.856-7.62-2.66-10.615s-8.178,8.176-11.565,7.116-4.288-11.364-9.437-10.352.133,12.925-3.535,14.4-5.481-6.69-11.257-5.358c-3.226.744-13.351,8.242-.969,13.937,4.885,2.246,11.812,2.267,12.041,10.927s11.7,5.81,9.145,1.909,3.919-7.838,7.054-.416c.046.109.1.2.146.3.02.04.037.079.058.12a4.113,4.113,0,0,0,2.167,2.154,4.933,4.933,0,0,0,7.126-3.142,5.35,5.35,0,0,0-.48-4.137,3.49,3.49,0,0,0-.879-1.169c-4.415-3.893,1.69-8.708,4.9-6.271a11.988,11.988,0,0,0,2.786,1.424v-.015c.072.025.134.066.208.089a4.859,4.859,0,0,0,6.09-3.362,5.118,5.118,0,0,0-1.817-5.53" transform="translate(-434.004 -157.575)" fill="#39a935"/><g transform="translate(900.136 768.545)"><path d="M1868.989,887.144c2.27,29.688,14.5,33.3,17.353,34-4.844-.744-22.483-7.109-26.411-23.763-1.042-4.417-5.027-26.246-8.671-31.531,0,0,4.723,7.649,5.715,8.312s7.794,6.8,7.794,6.8Z" transform="translate(-1851.261 -865.849)" fill="#0f888e"/><path d="M1865.684,887.793a1.176,1.176,0,0,1-.537,1.554,1.112,1.112,0,0,1-1.486-.605,1.179,1.179,0,0,1,.541-1.553,1.119,1.119,0,0,1,1.482.6" transform="translate(-1857.411 -876.477)" fill="#43afc0"/><path d="M1867.689,898.777a1.185,1.185,0,0,1-.539,1.558,1.121,1.121,0,0,1-1.487-.609,1.19,1.19,0,0,1,.541-1.554,1.119,1.119,0,0,1,1.484.605" transform="translate(-1858.415 -881.972)" fill="#43afc0"/><path d="M1869.226,909a.766.766,0,0,1-.345,1,.715.715,0,0,1-.96-.391.753.753,0,0,1,.349-1,.721.721,0,0,1,.956.391" transform="translate(-1859.56 -887.21)" fill="#43afc0"/><path d="M1870.3,916.7a.759.759,0,0,1-.349,1,.716.716,0,0,1-.958-.391.766.766,0,0,1,.345-1,.728.728,0,0,1,.961.4" transform="translate(-1860.1 -891.062)" fill="#43afc0"/><path d="M1872.075,927.053a.758.758,0,0,1-.341,1,.72.72,0,0,1-.964-.393.762.762,0,0,1,.349-1,.719.719,0,0,1,.957.391" transform="translate(-1860.988 -896.243)" fill="#43afc0"/><path d="M1876.063,938.5a.76.76,0,0,1-.345,1,.712.712,0,0,1-.957-.388.765.765,0,0,1,.345-1.007.722.722,0,0,1,.957.4" transform="translate(-1862.984 -901.969)" fill="#43afc0"/><path d="M1881.917,947.929a.757.757,0,0,1-.349,1,.715.715,0,0,1-.956-.391.759.759,0,0,1,.349-1,.72.72,0,0,1,.957.4" transform="translate(-1865.911 -906.686)" fill="#43afc0"/><path d="M1889.757,955.558a.769.769,0,0,1-.349,1,.722.722,0,0,1-.958-.395.769.769,0,0,1,.346-1,.724.724,0,0,1,.96.395" transform="translate(-1869.834 -910.503)" fill="#43afc0"/></g></g></g></svg>