<svg xmlns="http://www.w3.org/2000/svg" width="121.717" height="23.616" viewBox="0 0 121.717 23.616"><g transform="translate(0)"><g transform="translate(0)"><path d="M42.106.358V23h4.523V9.558s3.169,5.9,4.625,8.791V23H55.7V.358H51.178v9h-.051L46.655.333Z" transform="translate(16.133 0.127)" fill="#3eab37"/><path d="M81.842,23.018h4.523V4.9h4.523V.351H72.233V16.476a2.5,2.5,0,0,1-.588,1.712,2.292,2.292,0,0,1-3.6-.332,2.366,2.366,0,0,1-.332-1.3V.351H63.187V16.578a7.155,7.155,0,0,0,.332,2.2,6.759,6.759,0,0,0,2.1,3.092A6.463,6.463,0,0,0,68.784,23.4a5.3,5.3,0,0,0,1.1.077h.358a6.611,6.611,0,0,0,3.373-1.1A6.808,6.808,0,0,0,76.5,18.495a8.806,8.806,0,0,0,.256-2.453V4.9h5.085Z" transform="translate(24.21 0.135)" fill="#3eab37"/><path d="M63.566,23.018h4.5C66.1,15.454,64.128,7.915,62.16.351H57.867L52.194,23.018h4.4c.026-.051,1.124-4.549,1.124-4.549h4.855Zm-4.881-9.072,1.431-6.67h.051l1.431,6.67Z" transform="translate(19.998 0.135)" fill="#3eab37"/><path d="M20.939,22.518a6.808,6.808,0,0,0,2.888-3.884,8.806,8.806,0,0,0,.256-2.453V7.492a8.806,8.806,0,0,0-.256-2.453,6.7,6.7,0,0,0-2.888-3.884,6.611,6.611,0,0,0-3.373-1.1h-.358a7.666,7.666,0,0,0-1.1.077A6.463,6.463,0,0,0,12.94,1.665a6.759,6.759,0,0,0-2.1,3.092,7.155,7.155,0,0,0-.332,2.2v9.736a7.155,7.155,0,0,0,.332,2.2,6.759,6.759,0,0,0,2.1,3.092,6.463,6.463,0,0,0,3.169,1.533,5.3,5.3,0,0,0,1.1.077h.358A6.353,6.353,0,0,0,20.939,22.518Zm-5.571-4.523a2.366,2.366,0,0,1-.332-1.3V6.955a2.6,2.6,0,0,1,.332-1.3,2.292,2.292,0,0,1,3.6-.332,2.5,2.5,0,0,1,.588,1.712v9.557a2.5,2.5,0,0,1-.588,1.712A2.3,2.3,0,0,1,15.368,17.995Z" transform="translate(4.028 0.021)" fill="#3eab37"/><path d="M10.452,22.539a6.66,6.66,0,0,0,2.862-3.884,7.666,7.666,0,0,0,.281-1.865c.026-.537-.026-2.709-.026-2.709h-4.5v2.555a2.517,2.517,0,0,1-.588,1.687,2.292,2.292,0,0,1-3.6-.332,2.366,2.366,0,0,1-.332-1.3V6.925a2.538,2.538,0,0,1,.332-1.3A2.227,2.227,0,0,1,8.433,5.29,3.939,3.939,0,0,1,8.97,7.283H13.6V6.874a9.11,9.11,0,0,0-.256-1.865,6.808,6.808,0,0,0-2.888-3.884A6.409,6.409,0,0,0,7.079,0H6.721a7.943,7.943,0,0,0-1.1.077A6.463,6.463,0,0,0,2.453,1.61,7.015,7.015,0,0,0,.332,4.7,7.327,7.327,0,0,0,0,6.925v9.787a7.155,7.155,0,0,0,.332,2.2A6.759,6.759,0,0,0,2.428,22,6.463,6.463,0,0,0,5.6,23.536a5.3,5.3,0,0,0,1.1.077h.358A6.368,6.368,0,0,0,10.452,22.539Z" transform="translate(0)" fill="#3eab37"/><path d="M42.038,22.518A6.66,6.66,0,0,0,44.9,18.634a8.806,8.806,0,0,0,.256-2.453V7.492A8.806,8.806,0,0,0,44.9,5.039a6.66,6.66,0,0,0-2.862-3.884,6.611,6.611,0,0,0-3.373-1.1h-.358a7.666,7.666,0,0,0-1.1.077A6.463,6.463,0,0,0,34.04,1.665a6.759,6.759,0,0,0-2.1,3.092,7.155,7.155,0,0,0-.332,2.2v9.736a7.155,7.155,0,0,0,.332,2.2,6.759,6.759,0,0,0,2.1,3.092,6.463,6.463,0,0,0,3.169,1.533,5.3,5.3,0,0,0,1.1.077h.358A6.5,6.5,0,0,0,42.038,22.518Zm-5.6-4.523a2.366,2.366,0,0,1-.332-1.3V6.955a2.6,2.6,0,0,1,.332-1.3,2.292,2.292,0,0,1,3.6-.332,2.5,2.5,0,0,1,.588,1.712v9.557a2.5,2.5,0,0,1-.588,1.712A2.305,2.305,0,0,1,36.442,17.995Z" transform="translate(12.112 0.021)" fill="#3eab37"/><path d="M31.5,22.532a6.66,6.66,0,0,0,2.862-3.884,7.666,7.666,0,0,0,.281-1.865c.026-.537-.026-2.709-.026-2.709H30.09v2.555a2.517,2.517,0,0,1-.588,1.687,2.292,2.292,0,0,1-3.6-.332,2.366,2.366,0,0,1-.332-1.3V6.918a2.538,2.538,0,0,1,.332-1.3,2.242,2.242,0,0,1,3.552-.332,3.691,3.691,0,0,1,.537,1.993h4.625V6.867A9.111,9.111,0,0,0,34.358,5,6.7,6.7,0,0,0,31.47,1.117,6.611,6.611,0,0,0,28.1.018h-.358A7.666,7.666,0,0,0,26.64.1a6.463,6.463,0,0,0-3.169,1.533,6.759,6.759,0,0,0-2.1,3.092,7.155,7.155,0,0,0-.332,2.2v9.787a7.155,7.155,0,0,0,.332,2.2A6.759,6.759,0,0,0,23.472,22a6.463,6.463,0,0,0,3.169,1.533,5.3,5.3,0,0,0,1.1.077H28.1a6.368,6.368,0,0,0,3.4-1.073Z" transform="translate(8.063 0.007)" fill="#3eab37"/><path d="M85.89,3.647V2.829h.434l.537.818H87.5l-.613-.92a.836.836,0,0,0,.383-.281.923.923,0,0,0,.153-.511h0a.892.892,0,0,0-.2-.562,1.022,1.022,0,0,0-.792-.281H85.3v2.53Zm0-1.3V1.6h.537a.511.511,0,0,1,.332.1.411.411,0,0,1,.128.281v.026a.455.455,0,0,1-.1.256.511.511,0,0,1-.332.1Z" transform="translate(32.684 0.417)" fill="#3eab37"/><path d="M84.028,2.8a2.747,2.747,0,1,0,2.76-2.76,2.747,2.747,0,0,0-2.76,2.76Zm4.932,0a2.2,2.2,0,1,1-2.2-2.2h0a2.2,2.2,0,0,1,2.2,2.2Z" transform="translate(32.195 0.014)" fill="#3eab37"/></g></g></svg>